<?xml version="1.0" encoding="utf-8"?>
<!-- Generator: Adobe Illustrator 24.3.0, SVG Export Plug-In . SVG Version: 6.00 Build 0)  -->
<svg version="1.1" xmlns="http://www.w3.org/2000/svg" xmlns:xlink="http://www.w3.org/1999/xlink" x="0px" y="0px"
	 viewBox="0 0 595.3 841.9" style="enable-background:new 0 0 595.3 841.9;" xml:space="preserve">
<style type="text/css">
	.st0{fill:#686468;}
	.st1{opacity:0.2;}
	.st2{fill:#231F20;}
	.st3{font-family:'Impact';}
	.st4{font-size:48px;}
	.st5{fill:#31364D;stroke:#000000;stroke-width:0.75;stroke-miterlimit:10;}
	.st6{fill:#31364D;stroke:#000000;stroke-width:0.25;stroke-miterlimit:10;}
	.st7{fill:#596256;stroke:#000000;stroke-width:0.25;stroke-miterlimit:10;}
	.st8{fill:#5D6154;stroke:#000000;stroke-width:0.25;stroke-miterlimit:10;}
	.st9{fill:#3B1102;stroke:#000000;stroke-width:0.25;stroke-miterlimit:10;}
	.st10{fill:#788474;stroke:#000000;stroke-width:0.25;stroke-miterlimit:10;}
	.st11{opacity:0.9;fill:#3E443B;stroke:#000000;stroke-width:0.25;stroke-miterlimit:10;}
	.st12{opacity:0.9;fill:#3A3C26;stroke:#000000;stroke-width:0.25;stroke-miterlimit:10;}
	.st13{opacity:0.9;fill:#3C413C;stroke:#000000;stroke-width:0.25;stroke-miterlimit:10;}
	.st14{opacity:0.9;fill:#19181D;stroke:#000000;stroke-width:0.25;stroke-miterlimit:10;}
	.st15{opacity:0.9;fill:#545867;stroke:#000000;stroke-width:0.25;stroke-miterlimit:10;}
	.st16{opacity:0.9;fill:#A7AC9B;stroke:#000000;stroke-width:0.25;stroke-miterlimit:10;}
	.st17{opacity:0.9;fill:#596256;stroke:#000000;stroke-width:0.25;stroke-miterlimit:10;}
	.st18{opacity:0.9;fill:#788176;stroke:#000000;stroke-width:0.25;stroke-miterlimit:10;}
	.st19{opacity:0.9;fill:#A0AC9B;stroke:#000000;stroke-width:0.25;stroke-miterlimit:10;}
	.st20{opacity:0.9;fill:#7D8775;stroke:#000000;stroke-width:0.25;stroke-miterlimit:10;}
	.st21{opacity:0.9;fill:#A9B2A1;stroke:#000000;stroke-width:0.25;stroke-miterlimit:10;}
	.st22{fill:#585466;}
	.st23{fill:#000006;}
	.st24{fill:#2A3655;}
	.st25{fill:#000002;}
	.st26{fill:#2E3548;}
	.st27{fill:#535466;}
	.st28{fill:#000200;}
	.st29{fill:#181818;}
	.st30{opacity:0.3;fill:#181818;stroke:#0D0D4C;stroke-width:0.75;stroke-miterlimit:10;}
	.st31{opacity:0.3;fill:#181818;}
	.st32{fill:#F5DAC2;stroke:#000000;stroke-miterlimit:10;}
	.st33{fill:#C9967C;}
	.st34{fill:#D19689;}
	.st35{fill:#A07C78;}
	.st36{fill:#A67A76;}
	.st37{fill:none;stroke:#21201D;stroke-width:0.5;stroke-miterlimit:10;}
	.st38{fill:#AEABAA;stroke:#3F3D3D;stroke-width:0.5;stroke-miterlimit:10;}
	.st39{opacity:0.9;fill:#FFFFFF;stroke:#231F20;stroke-width:0.5;stroke-miterlimit:10;}
	.st40{fill:none;stroke:#231F20;stroke-width:0.5;stroke-miterlimit:10;}
	.st41{opacity:0.7;fill:#936450;stroke:#020202;stroke-width:0.25;stroke-miterlimit:10;}
	.st42{fill:#EDE6E6;stroke:#000000;stroke-width:0.25;stroke-miterlimit:10;}
	.st43{fill:#840C0C;stroke:#000000;stroke-width:0.25;stroke-miterlimit:10;}
	.st44{fill:#E5E6EC;}
	.st45{fill:#9A9BA6;}
	.st46{fill:#FFFFFF;}
	.st47{fill:#30324A;stroke:#000000;stroke-width:0.5;stroke-miterlimit:10;}
	.st48{fill:#35364E;stroke:#000000;stroke-width:0.75;stroke-miterlimit:10;}
	.st49{fill:#2D395C;stroke:#000000;stroke-width:0.75;stroke-miterlimit:10;}
	.st50{fill:#B6BCC4;}
	.st51{fill:none;stroke:#000000;stroke-miterlimit:10;}
	.st52{fill:#909296;}
	.st53{fill:#161720;}
	.st54{fill:#191B20;}
	.st55{fill:#666E82;}
	.st56{fill:#171821;}
	.st57{fill:#656B7F;}
</style>
<g id="bg">
	<rect class="st0" width="595.3" height="841.9"/>
</g>
<g id="Layer_13">
	<g class="st1">
		<g>
			<text transform="matrix(1 -0.5774 0 1 11.8563 110.2894)" class="st2 st3 st4">KAKASHI</text>
			<text transform="matrix(1 -0.5774 0 1 -72.399 110.2894)" class="st2 st3 st4">KAKASHI</text>
			<text transform="matrix(1 -0.5774 0 1 95.0266 110.2894)" class="st2 st3 st4">KAKASHI</text>
			<text transform="matrix(1 -0.5774 0 1 177.3677 110.2894)" class="st2 st3 st4">KAKASHI</text>
			<text transform="matrix(1 -0.5774 0 1 260.5383 110.2894)" class="st2 st3 st4">KAKASHI</text>
			<text transform="matrix(1 -0.5774 0 1 342.8792 110.2894)" class="st2 st3 st4">KAKASHI</text>
			<text transform="matrix(1 -0.5774 0 1 426.0503 110.2894)" class="st2 st3 st4">KAKASHI</text>
			<text transform="matrix(1 -0.5774 0 1 508.3904 110.2894)" class="st2 st3 st4">KAKASHI</text>
		</g>
		<g>
			<text transform="matrix(1 -0.5774 0 1 11.3978 206.0975)" class="st2 st3 st4">KAKASHI</text>
			<text transform="matrix(1 -0.5774 0 1 -72.8575 206.0975)" class="st2 st3 st4">KAKASHI</text>
			<text transform="matrix(1 -0.5774 0 1 94.568 206.0975)" class="st2 st3 st4">KAKASHI</text>
			<text transform="matrix(1 -0.5774 0 1 176.9092 206.0975)" class="st2 st3 st4">KAKASHI</text>
			<text transform="matrix(1 -0.5774 0 1 260.0798 206.0975)" class="st2 st3 st4">KAKASHI</text>
			<text transform="matrix(1 -0.5774 0 1 342.4206 206.0975)" class="st2 st3 st4">KAKASHI</text>
			<text transform="matrix(1 -0.5774 0 1 425.5917 206.0975)" class="st2 st3 st4">KAKASHI</text>
			<text transform="matrix(1 -0.5774 0 1 507.9318 206.0975)" class="st2 st3 st4">KAKASHI</text>
		</g>
		<g>
			<text transform="matrix(1 -0.5774 0 1 9.5255 301.672)" class="st2 st3 st4">KAKASHI</text>
			<text transform="matrix(1 -0.5774 0 1 -74.7299 301.672)" class="st2 st3 st4">KAKASHI</text>
			<text transform="matrix(1 -0.5774 0 1 92.6957 301.672)" class="st2 st3 st4">KAKASHI</text>
			<text transform="matrix(1 -0.5774 0 1 175.0368 301.672)" class="st2 st3 st4">KAKASHI</text>
			<text transform="matrix(1 -0.5774 0 1 258.2074 301.672)" class="st2 st3 st4">KAKASHI</text>
			<text transform="matrix(1 -0.5774 0 1 340.5483 301.672)" class="st2 st3 st4">KAKASHI</text>
			<text transform="matrix(1 -0.5774 0 1 423.7194 301.672)" class="st2 st3 st4">KAKASHI</text>
			<text transform="matrix(1 -0.5774 0 1 506.0594 301.672)" class="st2 st3 st4">KAKASHI</text>
		</g>
		<g>
			<text transform="matrix(1 -0.5774 0 1 9.5255 398.0337)" class="st2 st3 st4">KAKASHI</text>
			<text transform="matrix(1 -0.5774 0 1 -74.7299 398.0337)" class="st2 st3 st4">KAKASHI</text>
			<text transform="matrix(1 -0.5774 0 1 92.6957 398.0337)" class="st2 st3 st4">KAKASHI</text>
			<text transform="matrix(1 -0.5774 0 1 175.0368 398.0337)" class="st2 st3 st4">KAKASHI</text>
			<text transform="matrix(1 -0.5774 0 1 258.2074 398.0337)" class="st2 st3 st4">KAKASHI</text>
			<text transform="matrix(1 -0.5774 0 1 340.5483 398.0337)" class="st2 st3 st4">KAKASHI</text>
			<text transform="matrix(1 -0.5774 0 1 423.7194 398.0337)" class="st2 st3 st4">KAKASHI</text>
			<text transform="matrix(1 -0.5774 0 1 506.0594 398.0337)" class="st2 st3 st4">KAKASHI</text>
		</g>
		<g>
			<text transform="matrix(1 -0.5774 0 1 9.5255 492.4266)" class="st2 st3 st4">KAKASHI</text>
			<text transform="matrix(1 -0.5774 0 1 -74.7299 492.4266)" class="st2 st3 st4">KAKASHI</text>
			<text transform="matrix(1 -0.5774 0 1 92.6957 492.4266)" class="st2 st3 st4">KAKASHI</text>
			<text transform="matrix(1 -0.5774 0 1 175.0368 492.4266)" class="st2 st3 st4">KAKASHI</text>
			<text transform="matrix(1 -0.5774 0 1 258.2074 492.4266)" class="st2 st3 st4">KAKASHI</text>
			<text transform="matrix(1 -0.5774 0 1 340.5483 492.4266)" class="st2 st3 st4">KAKASHI</text>
			<text transform="matrix(1 -0.5774 0 1 423.7194 492.4266)" class="st2 st3 st4">KAKASHI</text>
			<text transform="matrix(1 -0.5774 0 1 506.0594 492.4266)" class="st2 st3 st4">KAKASHI</text>
		</g>
		<g>
			<text transform="matrix(1 -0.5774 0 1 9.5255 587.2956)" class="st2 st3 st4">KAKASHI</text>
			<text transform="matrix(1 -0.5774 0 1 -74.7299 587.2956)" class="st2 st3 st4">KAKASHI</text>
			<text transform="matrix(1 -0.5774 0 1 92.6957 587.2956)" class="st2 st3 st4">KAKASHI</text>
			<text transform="matrix(1 -0.5774 0 1 175.0368 587.2956)" class="st2 st3 st4">KAKASHI</text>
			<text transform="matrix(1 -0.5774 0 1 258.2074 587.2956)" class="st2 st3 st4">KAKASHI</text>
			<text transform="matrix(1 -0.5774 0 1 340.5483 587.2956)" class="st2 st3 st4">KAKASHI</text>
			<text transform="matrix(1 -0.5774 0 1 423.7194 587.2956)" class="st2 st3 st4">KAKASHI</text>
			<text transform="matrix(1 -0.5774 0 1 506.0594 587.2956)" class="st2 st3 st4">KAKASHI</text>
		</g>
		<g>
			<text transform="matrix(1 -0.5774 0 1 9.5255 684.3287)" class="st2 st3 st4">KAKASHI</text>
			<text transform="matrix(1 -0.5774 0 1 -74.7299 684.3287)" class="st2 st3 st4">KAKASHI</text>
			<text transform="matrix(1 -0.5774 0 1 92.6957 684.3287)" class="st2 st3 st4">KAKASHI</text>
			<text transform="matrix(1 -0.5774 0 1 175.0368 684.3287)" class="st2 st3 st4">KAKASHI</text>
			<text transform="matrix(1 -0.5774 0 1 258.2074 684.3287)" class="st2 st3 st4">KAKASHI</text>
			<text transform="matrix(1 -0.5774 0 1 340.5483 684.3287)" class="st2 st3 st4">KAKASHI</text>
			<text transform="matrix(1 -0.5774 0 1 423.7194 684.3287)" class="st2 st3 st4">KAKASHI</text>
			<text transform="matrix(1 -0.5774 0 1 506.0594 684.3287)" class="st2 st3 st4">KAKASHI</text>
		</g>
		<g>
			<text transform="matrix(1 -0.5774 0 1 9.5255 780.8595)" class="st2 st3 st4">KAKASHI</text>
			<text transform="matrix(1 -0.5774 0 1 -74.7299 780.8595)" class="st2 st3 st4">KAKASHI</text>
			<text transform="matrix(1 -0.5774 0 1 92.6957 780.8595)" class="st2 st3 st4">KAKASHI</text>
			<text transform="matrix(1 -0.5774 0 1 175.0368 780.8595)" class="st2 st3 st4">KAKASHI</text>
			<text transform="matrix(1 -0.5774 0 1 258.2074 780.8595)" class="st2 st3 st4">KAKASHI</text>
			<text transform="matrix(1 -0.5774 0 1 340.5483 780.8595)" class="st2 st3 st4">KAKASHI</text>
			<text transform="matrix(1 -0.5774 0 1 423.7194 780.8595)" class="st2 st3 st4">KAKASHI</text>
			<text transform="matrix(1 -0.5774 0 1 506.0594 780.8595)" class="st2 st3 st4">KAKASHI</text>
		</g>
		<g>
			<text transform="matrix(1 -0.5774 0 1 9.5255 876.8595)" class="st2 st3 st4">KAKASHI</text>
			<text transform="matrix(1 -0.5774 0 1 -74.7299 876.8595)" class="st2 st3 st4">KAKASHI</text>
			<text transform="matrix(1 -0.5774 0 1 92.6957 876.8595)" class="st2 st3 st4">KAKASHI</text>
			<text transform="matrix(1 -0.5774 0 1 175.0368 876.8595)" class="st2 st3 st4">KAKASHI</text>
			<text transform="matrix(1 -0.5774 0 1 258.2074 876.8595)" class="st2 st3 st4">KAKASHI</text>
			<text transform="matrix(1 -0.5774 0 1 340.5483 876.8595)" class="st2 st3 st4">KAKASHI</text>
			<text transform="matrix(1 -0.5774 0 1 423.7194 876.8595)" class="st2 st3 st4">KAKASHI</text>
			<text transform="matrix(1 -0.5774 0 1 506.0594 876.8595)" class="st2 st3 st4">KAKASHI</text>
		</g>
	</g>
</g>
<g id="clothes">
	<path class="st5" d="M184,428.1c0,0,8.5,6.8,7.7,8.7c-21.1,45.7-25.2,44.2-22.2,47.8c2.9,3.4,24.9,9.4,24.9,9.4l2.2,1.5
		c0.5,0.4,1.1,12.1,9.9,11.3c-0.2-1.4-2.2,7.4,3.9,7.4l21.6,31.3c0,0,9.8,20,42.1-5.5l6.9-0.8v11.1c0,0,9.2,5.7,9.8,15.2l17.5-28.5
		l107.8-31.8l-11.4-4.3c0,0-11.1-10.6-16-33.2c-4.9-22.6-58.7-82-58.7-82L224,385l-34.3,25.5L184,428.1z"/>
	<polygon class="st6" points="275.9,625.7 321.6,636.4 331.9,650.9 288.4,695.1 308.5,724.7 309.6,726.4 308.5,715.9 316,701.2 
		311.4,715.1 351,717.8 376.4,710.9 365.3,720 440.4,710.8 435.4,724.2 451.7,705.1 417,652.2 485.8,730.6 459.3,629 461,585.8 
		453.6,626.8 473.4,705.3 411.4,637.8 343.6,626.9 329.9,618 	"/>
	<polygon class="st7" points="270.2,593.1 251.2,612.1 259.5,626.1 230.7,672.2 230.7,702 212.2,722.1 256.3,710.9 308.5,727.7 
		280.6,695.4 324.7,653.3 320.6,639.4 271.1,628.5 260.5,610.4 	"/>
	<polygon class="st8" points="279.1,621.3 331,614.7 346.1,624.2 411.2,631.9 466.7,692.6 451,627.8 463.3,552.7 441.8,595.8 
		430.1,605.8 363.9,580.8 	"/>
	<polygon class="st9" points="452.7,534.7 444.2,582.2 461.7,549 450.8,565.5 	"/>
	<polygon class="st10" points="404.9,501 424.1,501.8 452,524 438.9,593.1 429.6,601.7 363.7,576.9 271.9,621.9 265,606.3 
		291,565.5 308.5,537.1 416.3,505.2 	"/>
</g>
<g id="cloth_shadows">
	<polygon class="st11" points="452,524 430.9,581.7 421,589.1 365.3,573.1 330.4,593.2 363.7,576.9 429.6,601.7 438.9,593.1 	"/>
	<polygon class="st12" points="442.1,595.3 454.9,583.3 444.2,624.1 448.5,657.6 414.8,620.4 353,622.3 333.6,611.4 321.4,609.1 
		362.7,588.1 376.8,586.3 363.5,580.5 279.1,621.3 331,614.7 346.1,624.2 411.2,631.9 466.9,693.3 451.1,626.7 462.9,553.4 	"/>
	<polygon class="st13" points="213.4,721.9 259.3,704.6 271.6,706.9 271.6,693.3 314.2,653 314.2,644.3 271.1,628.5 320.6,639.4 
		324.7,653.3 280.6,695.4 308.5,727.7 256.3,710.9 	"/>
	<polygon class="st14" points="311.7,714.8 352,714.8 395.7,693.3 395.7,662.2 342.8,639.7 349.7,651.4 299.4,693.3 309.6,726.4 
		287.9,695.6 331.9,650.9 321.6,636.4 275.4,625.7 329.9,618 343.6,626.9 411.4,637.8 473,705.3 453.6,627.2 460.5,584.8 
		458.7,625.9 485.8,730.6 417,652.2 451.7,705.1 435.4,724.2 440.4,710.8 365.3,719.9 375.5,712 350.5,719.6 	"/>
	<polygon class="st15" points="306.5,716.3 312.4,693.3 341.4,658.4 299.4,693.3 306.5,716.3 	"/>
	<polygon class="st16" points="309.6,545.7 269.3,605.5 273.4,617.2 341.4,572.8 303,581.5 	"/>
	<polygon class="st17" points="337.2,548.3 349.2,569 273.4,617.2 271.9,621.9 365.3,573.1 421,589.1 430.9,581.7 452,524 
		424.3,501.6 425.8,512.6 	"/>
	<polygon class="st18" points="395.2,611.9 406.9,617.2 353,622.3 333.6,611.4 321.4,609.1 362.7,588.1 376.8,586.3 419.2,607.3 	
		"/>
	<path class="st19" d="M370.3,589.9c0,0-23.6,13.8-8,23.5l-9.2,8.9l-19.4-11l7.7-12.4l21.4-10.8l14-1.8L370.3,589.9z"/>
	<polygon class="st20" points="269.3,594.5 260.5,610.4 262.9,628.2 273.4,637.9 276.4,657.6 247.6,685.9 247.6,695.4 231,706.9 
		230.7,672.2 259.5,626.1 251.4,612.1 	"/>
	<polygon class="st21" points="248.6,651.7 235.6,673.7 239.7,693.3 244.8,683.9 247.6,695.4 231,706.5 230.7,672.2 	"/>
	<path class="st22" d="M188.5,448.6l-4.6,22.5c0,0-2.6,14.1,10.2,17l-19.9-4.3c-0.1-0.3-2.2-2.6,0.2-6.4
		C176.7,473.5,188.5,448.6,188.5,448.6z"/>
	<path class="st23" d="M293.9,517.8L281,548.6V540h-8.2l16.5-21.1l10-27.6c0,0,1.4-2.4,1.4-4.3S293.9,517.8,293.9,517.8z"/>
	<path class="st24" d="M293.6,559.9c0,0-3.7-8.7-4.9-9c-1.2-0.3-2.4-4.8-0.7-8.5c1.7-3.7,7.4-25.2,7.4-25.2l-1.4,0.7L283,548
		l9.7,15.3L293.6,559.9z"/>
	<polygon class="st25" points="415.4,505.1 385.3,498.8 309.4,532.1 293.6,559.9 310.6,536.4 	"/>
	<path class="st26" d="M384.2,469.1l-8.4-0.8L373,471v11.1l-19.4-13.8l-1.4,24l-15.7,19.2c0,0-2.2,4.9,2.9,4.1s1.8,3.2,1.8,3.2
		l43.9-20.1l18,2.8l-12.1-10L384.2,469.1z"/>
	<path class="st27" d="M371.2,483.4l-6-3.6c0,0-4.9-3.7-1.9,8.5l0.5,3.7l-14.3,13.8l-8.2,0.9l10.9-14.5l1.4-24l19.4,13.8
		L371.2,483.4z"/>
	<path class="st28" d="M281.3,455.2l9,12.5c0,0,3.6,7.7,10.9,0.6c7.3-7.1,18.2-15.7,18.2-15.7l6-13.3l-3.9-6.6l-10.1,18.7
		l-14.8,10.9h-4.8L281.3,455.2z"/>
	<path class="st29" d="M277.8,455.5l2.7,40.4l-24.3,39.1l-15.7,8.2l-10.5-1.2c-2-1.9,5.2,7.4,6.4,8.1c8.3,3.9,12.1,2.4,15.4,1.7
		c4.1-0.8,18.6-7,21.7-11.9c3.5-5.6,16-20.9,15.7-21.1l9.7-26.6l-5.4,24.6l-6.1,25.2c0,0-1.5,7.7,0.7,8.5s5.4,9.3,5.4,9.3l15.8-27.7
		l31.5-13.6c0,0,2.4-4.1-1.8-3.2c-4.3,0.9-4.9-1.6-2.9-4.1s15.7-19.2,15.7-19.2l1.4-24l19.4,13.8v-11.1l2.8-2.7l8.4,0.8L366.9,450
		l-0.5,23.2l-29.1-27.4l-0.5,12.6L325,439l-6,13.3L300.8,468c0,0-5.6,7-10.4,0.2c-4.8-6.9-4.8-6.9-4.8-6.9l-4.6-6.4L277.8,455.5z"/>
	<path class="st30" d="M217.1,501"/>
	<path class="st30" d="M206.6,506.8"/>
	<path class="st31" d="M221,507.7l-6.2,4.3c0,0-1.7,1.8-4.1,1.9c-2,0.1-0.2,0.4-0.2,0.4l3,4.4c0,0-1.2-2.9,5.5-8.2
		C225.8,505,221,507.7,221,507.7z"/>
	<path class="st31" d="M203.9,506.5c0,0,8.2-3.4,16-8.9c8.1-5.7-2.9,3.1-3.3,3.4c-2.9,2.2-7.6,3.9-9.2,6.4s-1.1,3-1.1,3l0.4-3.5
		L203.9,506.5z"/>
</g>
<g id="face">
	<path class="st32" d="M248.6,385.3l-24.5,2.5l-34,23l-6.5,16.5l8,9l-2.9,7.4l44.3,13.5l48.3-1.5l10.7,6.6h4.4l15-10.9
		c0,0,13.3-20.3,13.9-36.6c1.3-4.1-10.7-30.2-30.2-27.9c0,0-10.9,1-14.5,10.6l-5.7,26l-24.3-30.9l0.9-4.9L248.6,385.3z"/>
</g>
<g id="face_shadows">
	<path class="st33" d="M274,422.3L244,395.6v-6.1l-19.1,4.4l-10.9,10.9c0,0-8.3,5.5-5.8,16.1s-16.3,16.4-16.3,16.4l-0.3-1.8
		l-8.4-8.8l7.9-16.9l33.2-22.3l24.3-2.3l23.5,23.1L274,422.3z"/>
	<path class="st34" d="M276.5,452.3l7.8-7.3l-1.9-10.9l8-7.8l-1-5.8l-1.5-19l6.3-6.1l5.6,0.3l8.7,8.9c0,0,5.7,7.5,0,9.4
		c0,0-3.4,6.6,4.5,8.2c0,0,3.4,1-1.7,8.5l-4.8,12.4c0,0-12,12.1,3.7,8.8c0,0-9.5,7.9-13.8,10h-4.2l-10.8-6.6l-3.4,0.2L276.5,452.3z"
		/>
	<polygon class="st35" points="289.3,408 291.3,408.7 301,401.6 307.4,403.8 300.4,395.8 294.2,395.3 287.8,402 287.9,407.4 	"/>
	<path class="st36" d="M309.4,432.9c0,0-8.4-14-12-8.2c-3.6,5.8-6.7,8.2-6.7,8.2l-1.4,2.9l6.6,6.4l0.9,1.1c0,0,10.4-10.4,8.9-0.7
		C304.1,452.3,309.4,432.9,309.4,432.9z"/>
</g>
<g id="outlines">
	<path class="st37" d="M305.8,401.7l-6.4-6.1h-5.1l-6.4,6.1l1.3,16.9l7.7,6.6l-7.9,10.2l7.9,7.7c0,0,11-10.5,8.9,0l5.6-13.5
		l-2.9-5.1"/>
	<path class="st38" d="M188.4,425.2c0,0,0.7,1.7,4.8,1.5l8.6-14.8l28-10.4l-30.5,9.2L188.4,425.2z"/>
	<path class="st39" d="M197.6,430.5"/>
	<path class="st39" d="M222.2,419.4"/>
	<path class="st40" d="M199.5,419.8"/>
	<polyline class="st40" points="216.8,413.5 209,413.5 202.5,416.9 199.5,420 	"/>
	<polygon class="st41" points="204.4,447.9 204.4,438.3 209,433.6 209,420.9 206.5,414.8 206.6,410.2 203.8,411.2 203.8,416.2 
		206.7,420.6 206.1,433.1 202.3,436.9 202.3,447.4 	"/>
	<path class="st40" d="M203.8,411.5"/>
</g>
<g id="eye">
	<path class="st42" d="M221.6,420.1h-9.2c-0.1,0-10.2,2.4-10.9,2.8c-1.2,0.7-4.2,3.2-4.4,5.2c-0.1,1.2-0.3,3.6,2.3,5.3
		c1.2,0.8,3.5,0.9,5.2,0.7s3.7-0.7,3.7-0.7s8.3-3.7,10.5-5.3"/>
	<path class="st43" d="M201.7,423c0,0,7.2,3.1,3,11l-2.1,0.2l-2-0.2l-2.2-1.2l-1.2-2l-0.3-1.1v-1.7l0.4-1.3
		C197.5,426.8,200.6,423,201.7,423z"/>
</g>
<g id="Hair">
	<path class="st44" d="M157.5,385.1c0,0-23.2,10.7-27.1,21.4c-3.8,10.7,2.3-34.2,15.3-49.8l-27.8,7.4l27.8-22.5
		c0,0-72.8-40.6-79.9-54.6c0,0,43.9,8.4,57.4,4.3c0,0-44.7-23.2-60-54.6c0,0,51.6,0.3,63.1-5.1c0,0-33.2-27.8-35.2-36
		c0,0,40.1,7.9,52.9,7.7l-13.3-11.5c0,0,68.4,6.4,87.6-1.5c0,0-19.4-22.2-23-35.7c0,0,62.6,31.9,80.2,30.9c0,0,28.3,4.1,30.4,18.6
		c2,14.6,7.9-41.1,4.9-52.3c0,0,63.3,90.9,63.1,116.9l0,5.9c0,0,12.3-14.6,12-44.2c0,0,22,37,7.1,90.1l-1.8,7.9l21.2-16.1
		l-15.8,34.5l-10.7,41.4l4.1,15.3l24.3,20.4l-19.4-3c0,0,10,23.7,10,30.8c0,0-10.7-14.6-18.4-16.3l3.1,39.3l-22-24.5l-0.5,23.2
		l-29.6-27.9v13.1l-14.1-25.4l5.9-35.1l-24.1-12.3l-16.3,0.2l-8.3,9.9l-5.4,27.6L248.4,391l3.1-2.8l-6.1-4.3l-19.9,0.8l-29.6,17.9
		L157.5,385.1z"/>
</g>
<g id="hair_shadows">
	<path class="st45" d="M322.1,433.7l14.6,22.5l-0.8-15.3l2,2.6l27.8,29.1l-8.7-34l28.9,30.9l-18.9-48.5l7.7,3.5l-5.6-13.5l14.8,10
		l-14-21.8l9.4-12.3l-1-4.9l13.5-36l13.6-28.5l-16.2,11.2c3.5-3.4-3.2,5.9,2.3-10.2c8.7-25.5-0.9-58-0.9-58
		c-11.5,25.8-18.3,21.5-18.3,21.5c4.9-28.9-57.2-109-57.2-109c15.1,80.2-6.8,77.6-6.8,77.6l-24.6-18.1l10.7,15.8
		c-25.3-19.7-104.2-30.4-86.3-26.6s40.6,31.4,32.9,25.8c-7.7-5.6-29.9-11-29.9-11c12.5,2.8,19.1,17.9,19.1,17.9
		c-16.9-11-99.6,3.1-99.6,3.1c15.3,0.3,57.7,26.3,57.7,26.3l-22,3.3l17.1,2l-15.6,3.8l17.1,16.3l-37.3-7.4l35.2,29.4
		c0,0,70.5,37,64.9,48.3l10.7,12.8l-4.6,1l21,28.4l5.4-24.2c-0.3-0.8,13.3-24.2,34.7-2.1c0,0,8.3,8.3,10.1,17.9
		c0.7,0.1,0.3,11.1-3.9,19.5L322.1,433.7z"/>
	<path class="st45" d="M127.9,356l28.3-16.1c0,0-24.5-7.7-33.2-12.3c-8.7-4.6,22.7,14.2,22.7,14.2L127.9,356z"/>
	<path class="st45" d="M122.3,291.8l16.1-3.8c0,0-27.1-1.5-46.7-18.1C91.6,269.9,106.4,286.4,122.3,291.8z"/>
	<path class="st45" d="M123.2,234.3c0,0,14.8-0.5,19.9,1.5c5.1,2-31.1-16.3-41.9-28.1C91.4,197,123.2,234.3,123.2,234.3z"/>
	<path class="st45" d="M216,190.6c0,0-0.3,6.1,38.7,11.2c0,0,31.3,4.8,38.5,12.2c0,0-4.7-14-43.7-26.8c0,0-34.9-14.1-52.3-27.4
		C197.2,159.7,199.7,175.7,216,190.6z"/>
	<path class="st45" d="M133,193.4c0,0,24.3,10.2,31.9,12.5c7.7,2.3-20.7-2-20.7-2L133,193.4z"/>
	<path class="st46" d="M115,313.9c0,0-24.4-10-31.8-20.4c0,0,11.7,5.6,40.1,3.3l-29.9,2.3L115,313.9z"/>
	<path class="st46" d="M115,309.1l-13.7-7.9C101.3,301.1,111.9,301.1,115,309.1z"/>
	<path class="st46" d="M136.5,277.9c0,0-16.9,1.8-25-4.6L136.5,277.9z"/>
	<path class="st46" d="M92.7,261.8l-21.5-19.6l17.1-1.3c0,0-11.9,4.1-3.2,10.4L92.7,261.8z"/>
	<polygon class="st46" points="173.6,222.8 147.5,214 176.6,214 169.7,218.4 	"/>
	<path class="st46" d="M242.2,212.4c0,0-66.5-12.9-56.1-12.4c55.1,2.6,55.1,2.6,55.1,2.6l-12,3.2L242.2,212.4z"/>
	<polygon class="st46" points="384.7,396.1 384.7,407.1 397,413.2 389.6,406.1 	"/>
	<path class="st45" d="M141.5,363.2c0,0-11.4,22.8-11.6,40.2c0,0,15.5-14.5,21.7-15.2l-12.6,2.5
		C138.9,390.7,139.5,364.4,141.5,363.2z"/>
</g>
<g id="headband">
	<path class="st47" d="M388.5,398.9l-3.8-10.5l-48-11.2l-113.9,10.9l-31.7,21.8l-7.1,18.2l-8-0.9c0,0-27.1-33.4-16.6-60.8
		c0,0,18.6-42.2,41.4-44.1l170-11.6l15.6,4.1l6.1,3.6v6.5l-2.4,3.4l6,20.8l1.2,1.5l8.3-3.9l-15.5,44.8L388.5,398.9z"/>
	<polygon class="st48" points="392.4,393.6 440.4,420.9 538.5,389 458.3,395.8 405.7,384.2 	"/>
	<polygon class="st49" points="393.3,388.1 404.4,381.1 456.6,391.9 426,345.9 475.3,288.4 407.9,342 407.9,349.5 	"/>
</g>
<g id="forehead_protector">
	<path class="st50" d="M188.2,352.9v28.8l7.7,11.1v6.6l-10,8.7l-6,17.7l-2.7,0.9c0,0-26.7-32.7-17.7-56.5c0.2,0.4,7-18.3,18.6-23.7
		L188.2,352.9z"/>
	<path class="st51" d="M170.7,372.6l-3.2,13.9c0.5,0-9.7-2.4-8.3,5.5c0.4,2.3,1.9,5.7,2.8,8.2c2.2,6.5,4.5,11.7,8.8,10.2
		c6-2,3.3-13.3,3.3-13.3c0-1.1-8-7.5-11.8-0.8c-3.6,6.3,7.6,11.6,6.1,3.9"/>
	<polygon class="st52" points="166.7,356.9 173.9,353.4 179.7,359.2 180.6,389.4 188.7,397.4 178.1,410.7 177.1,426.6 179.9,425.7 
		185.8,408 195.9,399.4 195.9,392.7 188.2,381.7 188.3,352.3 177.7,346.2 166.7,356.9 	"/>
	<polygon class="st53" points="459.7,300.8 407.9,342 407.9,349.5 393.6,387.8 405,376.7 442,380.8 418.1,347.8 	"/>
	<polygon class="st54" points="395.2,395.1 440.5,420.4 519.6,393.7 439.4,406 	"/>
	<polygon class="st55" points="394.8,393.7 407.3,392.7 441.1,396.6 406,384.9 	"/>
	<path class="st56" d="M402.4,351.8l-13.1,33.1l-0.9,8.9l-2.9-6l-51.9-12.4l-84.9,8.9l12.1-5.1l-29.3,0.2l-26.2,8l11.9-0.9l-11.9,8
		v3.1l-14.2,12.4l-7.2,17.9l-7.8-0.7l3.7-1.3l6-17.7l10-8.7v-6.6l-7.7-11.1l0.1-29.3l-10.6-6.1l-10.9,10.6l11.6-17.2l12.8,8.3
		l3.1,28.9l1.7,4.1l2.7-3.9l-2.7-37.4c0,0-3.1-1.7-8.9,2.7s-0.5-3-0.5-3L203,326l0.5,2l125.4-7.8l42-9.4l14.9,3.9l3.6,7.5l-3.9,0.3
		l0.2,7.1l9.2,25L402.4,351.8z"/>
	<polygon class="st57" points="276.4,318.7 232,326.3 203.5,328 203,326 186,336.9 202.1,322.8 	"/>
	<polygon class="st57" points="232.8,386.4 249.6,383.9 260.9,379.1 249.1,379.2 	"/>
</g>
</svg>
