<?xml version="1.0" encoding="utf-8"?>
<!-- Generator: Adobe Illustrator 24.3.0, SVG Export Plug-In . SVG Version: 6.00 Build 0)  -->
<svg version="1.1" xmlns="http://www.w3.org/2000/svg" xmlns:xlink="http://www.w3.org/1999/xlink" x="0px" y="0px"
	 viewBox="0 0 595.3 841.9" style="enable-background:new 0 0 595.3 841.9;" xml:space="preserve">
<style type="text/css">
	.st0{display:none;}
	.st1{fill:#E51331;}
	.st2{fill:#2C1316;}
	.st3{fill:#249855;}
	.st4{fill:#F7F6F5;}
	.st5{fill:#DCE0E3;}
	.st6{fill:#131B25;}
	.st7{fill:#100E14;}
	.st8{fill:#0C1018;}
	.st9{fill:#C6CCD2;}
	.st10{fill:none;stroke:#000000;stroke-miterlimit:10;}
	.st11{fill:#150807;}
	.st12{fill:#D1D8DA;}
	.st13{fill:#C7CCD1;}
	.st14{fill:#0F1010;}
	.st15{fill:#1B6F3F;}
	.st16{fill:#091212;}
	.st17{fill:#B5B6BA;}
	.st18{fill:#ADB5B6;}
	.st19{fill:#FEE6C1;}
	.st20{fill:#DEAF8F;}
	.st21{fill:#E2AC94;}
	.st22{stroke:#000000;stroke-miterlimit:10;}
	.st23{fill:none;stroke:#66452F;stroke-miterlimit:10;}
	.st24{fill:none;stroke:#AA7755;stroke-miterlimit:10;}
	.st25{fill:none;}
	.st26{fill:none;stroke:#875838;stroke-miterlimit:10;}
	.st27{fill:#C94448;}
	.st28{fill:#9BA3A5;}
	.st29{fill:#99A3A9;}
	.st30{fill:#7A2D39;stroke:#231F20;stroke-miterlimit:10;}
	.st31{fill:#936241;stroke:#9E6C46;stroke-miterlimit:10;}
	.st32{fill:#7B3030;}
	.st33{fill:#2B0C0F;stroke:#231F20;stroke-miterlimit:10;}
</style>
<g id="Layer_1" class="st0">
</g>
<g id="BG">
	<rect class="st1" width="595.3" height="841.9"/>
</g>
<g id="Layer_13">
	<g>
		<g>
			<g>
				<path d="M104.3,50.6L102.1,62H81l-8.7,45.5H36.8L45.5,62h-21l2.2-11.4H104.3z"/>
				<path d="M166.8,50.6l9.5,56.9H140l0-10.2h-12.7l-4.1,10.2H86.6l28.9-56.9H166.8z M141.1,87.2c-0.6-6.4-0.9-14.4-0.9-23.9
					c-5.7,10.9-9.5,18.9-11.4,23.9H141.1z"/>
				<path d="M272.5,50.6l-10.8,56.9h-31.1L217,81.7l-4.9,25.9h-29.7l10.8-56.9h29.7l15,25.6l4.9-25.6H272.5z"/>
				<path d="M330.2,50.6l-7.2,38c-1.1,5.7-1.9,9.4-2.5,11s-2.2,3.1-4.7,4.4c-2.5,1.3-5.8,2.2-9.8,2.7c-4,0.5-9.9,0.8-17.8,0.8h-17.8
					l1.9-9.9c2.1,0.1,3.7,0.1,4.6,0.1c2.5,0,4.6-0.3,6.1-0.8c1.6-0.5,2.5-1.1,2.9-1.9c0.4-0.8,0.8-2.2,1.2-4.4l7.6-40H330.2z"/>
				<path d="M379.5,50.6l-10.8,56.9h-35.5L344,50.6H379.5z"/>
				<path d="M393.8,50.6h25.1c16.8,0,28.1,0.3,33.9,0.8c5.8,0.5,10.4,1.9,13.7,4.1c3.3,2.2,4.5,5.7,3.6,10.6
					c-0.8,4.4-2.7,7.4-5.7,8.9c-2.9,1.5-8.3,2.4-16.1,2.7c6.9,0.7,11.4,1.7,13.6,2.9c2.2,1.2,3.5,2.3,3.9,3.4s0.2,3.8-0.7,8.4
					l-2.9,15h-33l3.6-18.9c0.6-3,0.4-4.9-0.7-5.7c-1-0.7-4-1.1-8.9-1.1l-4.9,25.7h-35.5L393.8,50.6z M427.4,60.4L425,73
					c4,0,6.8-0.2,8.5-0.7c1.7-0.5,2.8-1.9,3.2-4.4l0.6-3.1c0.3-1.8-0.2-3-1.6-3.6S431.5,60.4,427.4,60.4z"/>
				<path d="M561.6,84c-1.1,5.7-2.2,9.8-3.3,12.1c-1.1,2.4-3.5,4.6-7.3,6.5c-3.8,2-8.7,3.5-14.7,4.5c-6,1.1-12.8,1.6-20.6,1.6
					c-7.3,0-13.8-0.5-19.4-1.5c-5.6-1-10-2.5-13.2-4.5c-3.2-2-4.9-4.2-5.1-6.5c-0.2-2.3,0.2-6.4,1.3-12.3l1.9-9.7
					c1.1-5.7,2.2-9.8,3.3-12.1c1.1-2.4,3.5-4.6,7.3-6.5c3.8-2,8.7-3.5,14.7-4.5c6-1.1,12.8-1.6,20.6-1.6c7.3,0,13.8,0.5,19.4,1.5
					s10,2.5,13.2,4.5s4.9,4.2,5.1,6.5c0.2,2.3-0.2,6.4-1.3,12.3L561.6,84z M529.7,65.3c0.5-2.6,0.5-4.3-0.1-5.1s-1.9-1.1-4.1-1.1
					c-1.9,0-3.3,0.3-4.4,0.9c-1.1,0.6-1.9,2.4-2.5,5.3l-5.1,26.6c-0.6,3.3-0.7,5.3-0.2,6.1c0.5,0.8,1.9,1.2,4.3,1.2
					c2.4,0,4.1-0.4,4.9-1.3c0.8-0.9,1.6-3,2.2-6.4L529.7,65.3z"/>
			</g>
		</g>
		<g>
			<g>
				<path d="M104.3,155.2l-2.2,11.4H81l-8.7,45.5H36.8l8.7-45.5h-21l2.2-11.4H104.3z"/>
				<path d="M166.8,155.2l9.5,56.9H140l0-10.2h-12.7l-4.1,10.2H86.6l28.9-56.9H166.8z M141.1,191.8c-0.6-6.4-0.9-14.4-0.9-23.9
					c-5.7,10.9-9.5,18.9-11.4,23.9H141.1z"/>
				<path d="M272.5,155.2l-10.8,56.9h-31.1L217,186.3l-4.9,25.9h-29.7l10.8-56.9h29.7l15,25.6l4.9-25.6H272.5z"/>
				<path d="M330.2,155.2l-7.2,38c-1.1,5.7-1.9,9.4-2.5,11s-2.2,3.1-4.7,4.4c-2.5,1.3-5.8,2.2-9.8,2.7c-4,0.5-9.9,0.8-17.8,0.8
					h-17.8l1.9-9.9c2.1,0.1,3.7,0.1,4.6,0.1c2.5,0,4.6-0.3,6.1-0.8c1.6-0.5,2.5-1.1,2.9-1.9c0.4-0.8,0.8-2.2,1.2-4.4l7.6-40H330.2z"
					/>
				<path d="M379.5,155.2l-10.8,56.9h-35.5l10.8-56.9H379.5z"/>
				<path d="M393.8,155.2h25.1c16.8,0,28.1,0.3,33.9,0.8c5.8,0.5,10.4,1.9,13.7,4.1c3.3,2.2,4.5,5.7,3.6,10.6
					c-0.8,4.4-2.7,7.4-5.7,8.9c-2.9,1.5-8.3,2.4-16.1,2.7c6.9,0.7,11.4,1.7,13.6,2.9c2.2,1.2,3.5,2.3,3.9,3.4s0.2,3.8-0.7,8.4
					l-2.9,15h-33l3.6-18.9c0.6-3,0.4-4.9-0.7-5.7c-1-0.7-4-1.1-8.9-1.1l-4.9,25.7h-35.5L393.8,155.2z M427.4,165l-2.4,12.7
					c4,0,6.8-0.2,8.5-0.7c1.7-0.5,2.8-1.9,3.2-4.4l0.6-3.1c0.3-1.8-0.2-3-1.6-3.6S431.5,165,427.4,165z"/>
				<path d="M561.6,188.6c-1.1,5.7-2.2,9.8-3.3,12.1c-1.1,2.4-3.5,4.6-7.3,6.5c-3.8,2-8.7,3.5-14.7,4.5c-6,1.1-12.8,1.6-20.6,1.6
					c-7.3,0-13.8-0.5-19.4-1.5c-5.6-1-10-2.5-13.2-4.5c-3.2-2-4.9-4.2-5.1-6.5c-0.2-2.3,0.2-6.4,1.3-12.3l1.9-9.7
					c1.1-5.7,2.2-9.8,3.3-12.1c1.1-2.4,3.5-4.6,7.3-6.5c3.8-2,8.7-3.5,14.7-4.5c6-1.1,12.8-1.6,20.6-1.6c7.3,0,13.8,0.5,19.4,1.5
					s10,2.5,13.2,4.5s4.9,4.2,5.1,6.5c0.2,2.3-0.2,6.4-1.3,12.3L561.6,188.6z M529.7,169.9c0.5-2.6,0.5-4.3-0.1-5.1
					s-1.9-1.1-4.1-1.1c-1.9,0-3.3,0.3-4.4,0.9c-1.1,0.6-1.9,2.4-2.5,5.3l-5.1,26.6c-0.6,3.3-0.7,5.3-0.2,6.1
					c0.5,0.8,1.9,1.2,4.3,1.2c2.4,0,4.1-0.4,4.9-1.3c0.8-0.9,1.6-3,2.2-6.4L529.7,169.9z"/>
			</g>
		</g>
		<g>
			<g>
				<path d="M104.3,254.1l-2.2,11.4H81L72.3,311H36.8l8.7-45.5h-21l2.2-11.4H104.3z"/>
				<path d="M166.8,254.1l9.5,56.9H140l0-10.2h-12.7l-4.1,10.2H86.6l28.9-56.9H166.8z M141.1,290.7c-0.6-6.4-0.9-14.4-0.9-23.9
					c-5.7,10.9-9.5,18.9-11.4,23.9H141.1z"/>
				<path d="M272.5,254.1L261.7,311h-31.1L217,285.1l-4.9,25.9h-29.7l10.8-56.9h29.7l15,25.6l4.9-25.6H272.5z"/>
				<path d="M330.2,254.1l-7.2,38c-1.1,5.7-1.9,9.4-2.5,11s-2.2,3.1-4.7,4.4c-2.5,1.3-5.8,2.2-9.8,2.7c-4,0.5-9.9,0.8-17.8,0.8
					h-17.8l1.9-9.9c2.1,0.1,3.7,0.1,4.6,0.1c2.5,0,4.6-0.3,6.1-0.8c1.6-0.5,2.5-1.1,2.9-1.9c0.4-0.8,0.8-2.2,1.2-4.4l7.6-40H330.2z"
					/>
				<path d="M379.5,254.1L368.7,311h-35.5l10.8-56.9H379.5z"/>
				<path d="M393.8,254.1h25.1c16.8,0,28.1,0.3,33.9,0.8c5.8,0.5,10.4,1.9,13.7,4.1c3.3,2.2,4.5,5.7,3.6,10.6
					c-0.8,4.4-2.7,7.4-5.7,8.9c-2.9,1.5-8.3,2.4-16.1,2.7c6.9,0.7,11.4,1.7,13.6,2.9c2.2,1.2,3.5,2.3,3.9,3.4s0.2,3.8-0.7,8.4
					l-2.9,15h-33l3.6-18.9c0.6-3,0.4-4.9-0.7-5.7c-1-0.7-4-1.1-8.9-1.1l-4.9,25.7h-35.5L393.8,254.1z M427.4,263.8l-2.4,12.7
					c4,0,6.8-0.2,8.5-0.7c1.7-0.5,2.8-1.9,3.2-4.4l0.6-3.1c0.3-1.8-0.2-3-1.6-3.6S431.5,263.8,427.4,263.8z"/>
				<path d="M561.6,287.4c-1.1,5.7-2.2,9.8-3.3,12.1c-1.1,2.4-3.5,4.6-7.3,6.5c-3.8,2-8.7,3.5-14.7,4.5c-6,1.1-12.8,1.6-20.6,1.6
					c-7.3,0-13.8-0.5-19.4-1.5c-5.6-1-10-2.5-13.2-4.5c-3.2-2-4.9-4.2-5.1-6.5c-0.2-2.3,0.2-6.4,1.3-12.3l1.9-9.7
					c1.1-5.7,2.2-9.8,3.3-12.1c1.1-2.4,3.5-4.6,7.3-6.5c3.8-2,8.7-3.5,14.7-4.5c6-1.1,12.8-1.6,20.6-1.6c7.3,0,13.8,0.5,19.4,1.5
					s10,2.5,13.2,4.5s4.9,4.2,5.1,6.5c0.2,2.3-0.2,6.4-1.3,12.3L561.6,287.4z M529.7,268.7c0.5-2.6,0.5-4.3-0.1-5.1
					s-1.9-1.1-4.1-1.1c-1.9,0-3.3,0.3-4.4,0.9c-1.1,0.6-1.9,2.4-2.5,5.3l-5.1,26.6c-0.6,3.3-0.7,5.3-0.2,6.1
					c0.5,0.8,1.9,1.2,4.3,1.2c2.4,0,4-0.4,4.9-1.3c0.8-0.9,1.6-3,2.2-6.4L529.7,268.7z"/>
			</g>
		</g>
		<g>
			<g>
				<path d="M104.3,347.9l-2.2,11.4H81l-8.7,45.5H36.8l8.7-45.5h-21l2.2-11.4H104.3z"/>
				<path d="M166.8,347.9l9.5,56.9H140l0-10.2h-12.7l-4.1,10.2H86.6l28.9-56.9H166.8z M141.1,384.5c-0.6-6.4-0.9-14.4-0.9-23.9
					c-5.7,10.9-9.5,18.9-11.4,23.9H141.1z"/>
				<path d="M272.5,347.9l-10.8,56.9h-31.1L217,378.9l-4.9,25.9h-29.7l10.8-56.9h29.7l15,25.6l4.9-25.6H272.5z"/>
				<path d="M330.2,347.9l-7.2,38c-1.1,5.7-1.9,9.4-2.5,11s-2.2,3.1-4.7,4.4c-2.5,1.3-5.8,2.2-9.8,2.7c-4,0.5-9.9,0.8-17.8,0.8
					h-17.8l1.9-9.9c2.1,0.1,3.7,0.1,4.6,0.1c2.5,0,4.6-0.3,6.1-0.8c1.6-0.5,2.5-1.1,2.9-1.9c0.4-0.8,0.8-2.2,1.2-4.4l7.6-40H330.2z"
					/>
				<path d="M379.5,347.9l-10.8,56.9h-35.5l10.8-56.9H379.5z"/>
				<path d="M393.8,347.9h25.1c16.8,0,28.1,0.3,33.9,0.8c5.8,0.5,10.4,1.9,13.7,4.1c3.3,2.2,4.5,5.7,3.6,10.6
					c-0.8,4.4-2.7,7.4-5.7,8.9c-2.9,1.5-8.3,2.4-16.1,2.7c6.9,0.7,11.4,1.7,13.6,2.9c2.2,1.2,3.5,2.3,3.9,3.4s0.2,3.8-0.7,8.4
					l-2.9,15h-33l3.6-18.9c0.6-3,0.4-4.9-0.7-5.7c-1-0.7-4-1.1-8.9-1.1l-4.9,25.7h-35.5L393.8,347.9z M427.4,357.6l-2.4,12.7
					c4,0,6.8-0.2,8.5-0.7c1.7-0.5,2.8-1.9,3.2-4.4l0.6-3.1c0.3-1.8-0.2-3-1.6-3.6S431.5,357.6,427.4,357.6z"/>
				<path d="M561.6,381.2c-1.1,5.7-2.2,9.8-3.3,12.1c-1.1,2.4-3.5,4.6-7.3,6.5c-3.8,2-8.7,3.5-14.7,4.5c-6,1.1-12.8,1.6-20.6,1.6
					c-7.3,0-13.8-0.5-19.4-1.5c-5.6-1-10-2.5-13.2-4.5c-3.2-2-4.9-4.2-5.1-6.5c-0.2-2.3,0.2-6.4,1.3-12.3l1.9-9.7
					c1.1-5.7,2.2-9.8,3.3-12.1c1.1-2.4,3.5-4.6,7.3-6.5c3.8-2,8.7-3.5,14.7-4.5c6-1.1,12.8-1.6,20.6-1.6c7.3,0,13.8,0.5,19.4,1.5
					s10,2.5,13.2,4.5s4.9,4.2,5.1,6.5c0.2,2.3-0.2,6.4-1.3,12.3L561.6,381.2z M529.7,362.5c0.5-2.6,0.5-4.3-0.1-5.1
					s-1.9-1.1-4.1-1.1c-1.9,0-3.3,0.3-4.4,0.9c-1.1,0.6-1.9,2.4-2.5,5.3l-5.1,26.6c-0.6,3.3-0.7,5.3-0.2,6.1
					c0.5,0.8,1.9,1.2,4.3,1.2c2.4,0,4.1-0.4,4.9-1.3c0.8-0.9,1.6-3,2.2-6.4L529.7,362.5z"/>
			</g>
		</g>
		<g>
			<g>
				<path d="M104.3,446.2l-2.2,11.4H81l-8.7,45.5H36.8l8.7-45.5h-21l2.2-11.4H104.3z"/>
				<path d="M166.8,446.2l9.5,56.9H140l0-10.2h-12.7l-4.1,10.2H86.6l28.9-56.9H166.8z M141.1,482.8c-0.6-6.4-0.9-14.4-0.9-23.9
					c-5.7,10.9-9.5,18.9-11.4,23.9H141.1z"/>
				<path d="M272.5,446.2l-10.8,56.9h-31.1L217,477.3l-4.9,25.9h-29.7l10.8-56.9h29.7l15,25.6l4.9-25.6H272.5z"/>
				<path d="M330.2,446.2l-7.2,38c-1.1,5.7-1.9,9.4-2.5,11c-0.6,1.6-2.2,3.1-4.7,4.4c-2.5,1.3-5.8,2.2-9.8,2.7
					c-4,0.5-9.9,0.8-17.8,0.8h-17.8l1.9-9.9c2.1,0.1,3.7,0.1,4.6,0.1c2.5,0,4.6-0.3,6.1-0.8c1.6-0.5,2.5-1.1,2.9-1.9
					c0.4-0.8,0.8-2.2,1.2-4.4l7.6-40H330.2z"/>
				<path d="M379.5,446.2l-10.8,56.9h-35.5l10.8-56.9H379.5z"/>
				<path d="M393.7,446.2h25.1c16.8,0,28.1,0.3,33.9,0.8c5.8,0.5,10.4,1.9,13.7,4.1c3.3,2.2,4.5,5.7,3.6,10.6
					c-0.8,4.4-2.7,7.4-5.7,8.9c-2.9,1.5-8.3,2.4-16.1,2.7c6.9,0.7,11.4,1.7,13.6,2.9c2.2,1.2,3.5,2.3,3.9,3.4s0.2,3.8-0.7,8.4
					l-2.9,15h-33l3.6-18.9c0.6-3,0.4-4.9-0.7-5.7c-1-0.7-4-1.1-8.9-1.1l-4.9,25.7h-35.5L393.7,446.2z M427.4,456l-2.4,12.7
					c4,0,6.8-0.2,8.5-0.7c1.7-0.5,2.8-1.9,3.3-4.4l0.6-3.1c0.3-1.8-0.2-3-1.6-3.6C434.3,456.2,431.5,456,427.4,456z"/>
				<path d="M561.6,479.5c-1.1,5.7-2.2,9.8-3.3,12.1c-1.1,2.4-3.5,4.6-7.3,6.5c-3.8,2-8.7,3.5-14.7,4.5c-6,1.1-12.8,1.6-20.6,1.6
					c-7.3,0-13.8-0.5-19.4-1.5c-5.6-1-10-2.5-13.2-4.5c-3.2-2-4.9-4.2-5.1-6.5c-0.2-2.3,0.2-6.4,1.3-12.3l1.9-9.7
					c1.1-5.7,2.2-9.8,3.3-12.1c1.1-2.4,3.5-4.6,7.3-6.5c3.8-2,8.7-3.5,14.7-4.5c6-1.1,12.8-1.6,20.6-1.6c7.3,0,13.8,0.5,19.4,1.5
					s10,2.5,13.2,4.5s4.9,4.2,5.1,6.5c0.2,2.3-0.2,6.4-1.3,12.3L561.6,479.5z M529.7,460.8c0.5-2.6,0.5-4.3-0.1-5.1
					s-1.9-1.1-4.1-1.1c-1.9,0-3.3,0.3-4.4,0.9c-1.1,0.6-1.9,2.4-2.5,5.3l-5.1,26.6c-0.6,3.3-0.7,5.3-0.2,6.1
					c0.5,0.8,1.9,1.2,4.3,1.2c2.4,0,4.1-0.4,4.9-1.3c0.8-0.9,1.6-3,2.2-6.4L529.7,460.8z"/>
			</g>
		</g>
		<g>
			<g>
				<path d="M104.3,542.4l-2.2,11.4H81l-8.7,45.5H36.8l8.7-45.5h-21l2.2-11.4H104.3z"/>
				<path d="M166.8,542.4l9.5,56.9H140l0-10.2h-12.7l-4.1,10.2H86.6l28.9-56.9H166.8z M141.1,579c-0.6-6.4-0.9-14.4-0.9-23.9
					c-5.7,10.9-9.5,18.9-11.4,23.9H141.1z"/>
				<path d="M272.5,542.4l-10.8,56.9h-31.1L217,573.4l-4.9,25.9h-29.7l10.8-56.9h29.7l15,25.6l4.9-25.6H272.5z"/>
				<path d="M330.2,542.4l-7.2,38c-1.1,5.7-1.9,9.4-2.5,11c-0.6,1.6-2.2,3.1-4.7,4.4c-2.5,1.3-5.8,2.2-9.8,2.7
					c-4,0.5-9.9,0.8-17.8,0.8h-17.8l1.9-9.9c2.1,0.1,3.7,0.1,4.6,0.1c2.5,0,4.6-0.3,6.1-0.8c1.6-0.5,2.5-1.1,2.9-1.9
					c0.4-0.8,0.8-2.2,1.2-4.4l7.6-40H330.2z"/>
				<path d="M379.5,542.4l-10.8,56.9h-35.5l10.8-56.9H379.5z"/>
				<path d="M393.7,542.4h25.1c16.8,0,28.1,0.3,33.9,0.8c5.8,0.5,10.4,1.9,13.7,4.1c3.3,2.2,4.5,5.7,3.6,10.6
					c-0.8,4.4-2.7,7.4-5.7,8.9c-2.9,1.5-8.3,2.4-16.1,2.7c6.9,0.7,11.4,1.7,13.6,2.9c2.2,1.2,3.5,2.3,3.9,3.4s0.2,3.8-0.7,8.4
					l-2.9,15h-33l3.6-18.9c0.6-3,0.4-4.9-0.7-5.7c-1-0.7-4-1.1-8.9-1.1l-4.9,25.7h-35.5L393.7,542.4z M427.4,552.1l-2.4,12.7
					c4,0,6.8-0.2,8.5-0.7c1.7-0.5,2.8-1.9,3.3-4.4l0.6-3.1c0.3-1.8-0.2-3-1.6-3.6C434.3,552.4,431.5,552.1,427.4,552.1z"/>
				<path d="M561.6,575.7c-1.1,5.7-2.2,9.8-3.3,12.1c-1.1,2.4-3.5,4.6-7.3,6.5c-3.8,2-8.7,3.5-14.7,4.5c-6,1.1-12.8,1.6-20.6,1.6
					c-7.3,0-13.8-0.5-19.4-1.5c-5.6-1-10-2.5-13.2-4.5c-3.2-2-4.9-4.2-5.1-6.5c-0.2-2.3,0.2-6.4,1.3-12.3l1.9-9.7
					c1.1-5.7,2.2-9.8,3.3-12.1c1.1-2.4,3.5-4.6,7.3-6.5c3.8-2,8.7-3.5,14.7-4.5c6-1.1,12.8-1.6,20.6-1.6c7.3,0,13.8,0.5,19.4,1.5
					s10,2.5,13.2,4.5s4.9,4.2,5.1,6.5c0.2,2.3-0.2,6.4-1.3,12.3L561.6,575.7z M529.7,557c0.5-2.6,0.5-4.3-0.1-5.1s-1.9-1.1-4.1-1.1
					c-1.9,0-3.3,0.3-4.4,0.9c-1.1,0.6-1.9,2.4-2.5,5.3l-5.1,26.6c-0.6,3.3-0.7,5.3-0.2,6.1c0.5,0.8,1.9,1.2,4.3,1.2
					c2.4,0,4.1-0.4,4.9-1.3c0.8-0.9,1.6-3,2.2-6.4L529.7,557z"/>
			</g>
		</g>
		<g>
			<g>
				<path d="M104.3,640.9l-2.2,11.4H81l-8.7,45.5H36.8l8.7-45.5h-21l2.2-11.4H104.3z"/>
				<path d="M166.8,640.9l9.5,56.9H140l0-10.2h-12.7l-4.1,10.2H86.6l28.9-56.9H166.8z M141.1,677.5c-0.6-6.4-0.9-14.4-0.9-23.9
					c-5.7,10.9-9.5,18.9-11.4,23.9H141.1z"/>
				<path d="M272.5,640.9l-10.8,56.9h-31.1L217,672l-4.9,25.9h-29.7l10.8-56.9h29.7l15,25.6l4.9-25.6H272.5z"/>
				<path d="M330.2,640.9l-7.2,38c-1.1,5.7-1.9,9.4-2.5,11s-2.2,3.1-4.7,4.4c-2.5,1.3-5.8,2.2-9.8,2.7c-4,0.5-9.9,0.8-17.8,0.8
					h-17.8l1.9-9.9c2.1,0.1,3.7,0.1,4.6,0.1c2.5,0,4.6-0.3,6.1-0.8c1.6-0.5,2.5-1.1,2.9-1.9c0.4-0.8,0.8-2.2,1.2-4.4l7.6-40H330.2z"
					/>
				<path d="M379.5,640.9l-10.8,56.9h-35.5l10.8-56.9H379.5z"/>
				<path d="M393.8,640.9h25.1c16.8,0,28.1,0.3,33.9,0.8c5.8,0.5,10.4,1.9,13.7,4.1c3.3,2.2,4.5,5.7,3.6,10.6
					c-0.8,4.4-2.7,7.4-5.7,8.9c-2.9,1.5-8.3,2.4-16.1,2.7c6.9,0.7,11.4,1.7,13.6,2.9c2.2,1.2,3.5,2.3,3.9,3.4s0.2,3.8-0.7,8.4
					l-2.9,15h-33l3.6-18.9c0.6-3,0.4-4.9-0.7-5.7c-1-0.7-4-1.1-8.9-1.1l-4.9,25.7h-35.5L393.8,640.9z M427.4,650.7l-2.4,12.7
					c4,0,6.8-0.2,8.5-0.7c1.7-0.5,2.8-1.9,3.2-4.4l0.6-3.1c0.3-1.8-0.2-3-1.6-3.6S431.5,650.7,427.4,650.7z"/>
				<path d="M561.6,674.2c-1.1,5.7-2.2,9.8-3.3,12.1c-1.1,2.4-3.5,4.6-7.3,6.5c-3.8,2-8.7,3.5-14.7,4.5c-6,1.1-12.8,1.6-20.6,1.6
					c-7.3,0-13.8-0.5-19.4-1.5s-10-2.5-13.2-4.5c-3.2-2-4.9-4.2-5.1-6.5c-0.2-2.3,0.2-6.4,1.3-12.3l1.9-9.7
					c1.1-5.7,2.2-9.8,3.3-12.1c1.1-2.4,3.5-4.6,7.3-6.5c3.8-2,8.7-3.5,14.7-4.5c6-1.1,12.8-1.6,20.6-1.6c7.3,0,13.8,0.5,19.4,1.5
					s10,2.5,13.2,4.5s4.9,4.2,5.1,6.5c0.2,2.3-0.2,6.4-1.3,12.3L561.6,674.2z M529.7,655.5c0.5-2.6,0.5-4.3-0.1-5.1
					s-1.9-1.1-4.1-1.1c-1.9,0-3.3,0.3-4.4,0.9c-1.1,0.6-1.9,2.4-2.5,5.3l-5.1,26.6c-0.6,3.3-0.7,5.3-0.2,6.1
					c0.5,0.8,1.9,1.2,4.3,1.2c2.4,0,4.1-0.4,4.9-1.3c0.8-0.9,1.6-3,2.2-6.4L529.7,655.5z"/>
			</g>
		</g>
	</g>
</g>
<g id="clothes">
	<path class="st2" d="M222.1,708l-1,32.9c0,0,35.2,21.4,66.1,20.2v-38.3C287.2,722.8,260.9,722.3,222.1,708z"/>
	<path class="st2" d="M333.4,761.1l1.3-40.9c0,0,50.6-6.4,62-9.7v32.7C396.7,743.2,373.7,758.6,333.4,761.1z"/>
	<path class="st2" d="M333.4,761.1c-25.7,3.6-46.2-0.1-46.2-0.1L221,729.4c-5.9,1.8-11.7,13.3-11.7,13.3
		c-10.7,8.9-26.8,100.8-26.8,100.8l247.4-1c-0.8-25.3-22.5-95-22.5-95c-2.8-15.8-10.7-19.7-10.7-19.7"/>
	<path class="st3" d="M209.3,742.9c5.1-3.1-45.7-0.5-45.7-0.5s-44.4,75.3-45.2,101.3h64.1c0,0,7.5-42.3,15.5-72.2
		C201.9,756.7,206,745,209.3,742.9z"/>
	<circle class="st4" cx="309.9" cy="801.8" r="20.7"/>
	<polygon class="st3" points="407.4,747.5 455.2,747.5 498.1,843.5 429.9,842.5 	"/>
	<path class="st3" d="M396.7,710.5"/>
	<path class="st5" d="M521.8,751.4c0,0,24.8,58.4,35,92.1h-58.7l-42.9-96c0,0-6.1-13-11-11.7c0,0-2-4.3,6.6-4.8
		c2.9-0.1,6.9,0.1,12.6,1.2C463.3,732.2,509.3,741.2,521.8,751.4z"/>
	<path class="st6" d="M595.3,805.8c0,0-17.6-32.2-36.2-33.4c0,0-29.9-13.6-33.4-11.8c0,0,24,59.5,31.1,83h38.5V805.8z"/>
	<path class="st6" d="M44.1,777.9L0,841v2.5h60.4c0,0,4.9-39.8,30.6-84C91.1,759.5,59.9,766.7,44.1,777.9z"/>
	<path class="st5" d="M118.4,843.5h-58c0,0,9.2-53.6,38.6-97.5c0,0,55.2-21.4,65-16.6c0,0,0.3-2.3,8.2,4.1
		c0.8,0.4-15.3,15.2-37.1,62C135.2,795.5,117.1,835.1,118.4,843.5z"/>
	<path class="st7" d="M222,711c0,0-17.1,4.3-21.9,14.8c0,0-24.8,4.8-27.8,6.8l-6.7,9.8c0,0,41.1-2.5,43.7,0.6
		c0,0,6.9-12.2,12.1-13.4L222,711z"/>
	<path class="st8" d="M396.7,710.5c0,0,19.5,11.6,24,16.3c0.7-0.1,30.5,4.2,34.5,20.7h-47.7c-0.1,0.1-3.5-15.7-10.7-19.7V710.5z"/>
	<path class="st9" d="M222.1,708v-15.6c0,0-1-5,14.6-2.6c181.7,28.7,40.6,6.5,38,6.9c0,0,38,29.1,74.3-2.3
		c-0.6-0.4,14.5-16.5,35.1-7.7c0,0,13.2-1.2,12.7,4.4l0.1,20.4l-62.2,13.5l-1.1,37.7l-46.2-0.1l-0.1-39.9
		C287,723.1,270.9,724.6,222.1,708z"/>
	<path class="st10" d="M222.1,698.5c0,0,36.3,12.9,87.8,13.5c26,0.3,55.8-2.4,86.8-11.5"/>
	<line class="st10" x1="309.9" y1="712.1" x2="309.9" y2="762.7"/>
	<line class="st10" x1="320.6" y1="725.1" x2="320.6" y2="762.7"/>
	<line class="st10" x1="299.7" y1="726.9" x2="299.7" y2="762.4"/>
</g>
<g id="cloth_shadows">
	<path class="st11" d="M388.8,713.1L360.7,756l34.2-12.8v-16.6c0,0,9.7,2.6,12,19.1c0,0-68.6,76.5-83.5,80.2
		c-2,0.5-34.7,27.1-59.7-4.1S222.8,768,222.8,768s19,63.5,30,75.6h-16.3c0,0-21.8-23.5-27.4-39.8c-5.6-16.3-17.4-8.3-17.4-8.3
		s14.5-52.9,17.7-53.4c0,0,4.9-10.4,10.9-12.4l0.7,10.6l13.3,6.8l-12.4-31.1v-8c0,0,54.1,16.9,65.4,14.8l0.5,39.1
		c0,0,34.2,3.1,45.8-0.2l1.4-41.5L388.8,713.1z"/>
	<circle class="st12" cx="309.1" cy="802.4" r="20.5"/>
	<circle class="st13" cx="308" cy="803.5" r="19.4"/>
	<path class="st11" d="M406.1,749.1c0,0-28.8,71.8-53.4,94.4h35.1l36.8-24.8C424.4,818.7,409.5,747.6,406.1,749.1z"/>
	<path class="st14" d="M396.5,710.3l-0.7,14.8c0,0,11.7,13.4,11.1,20.7c-0.7,7.2,15.7-17.7,15.7-17.7L396.5,710.3z"/>
	<polyline class="st15" points="183.5,742.4 197.7,772.8 208.7,741.7 184.1,741.9 	"/>
	<path class="st16" d="M180.9,730.4c0,0,1.1,10,3,11.4c1.8,1.4,24.9,0,24.9,0s7.1-12.6,11.6-12.2c4.6,0.3,1.5-17.9,1.5-17.9
		s-8.5-2.2-21.3,13.1C200.6,724.7,180.7,729,180.9,730.4z"/>
	<path class="st17" d="M171.8,734c0,0-27.8,20.4-52.3,109.5h-8.3c0,0,30.6-93.7,51.2-114.6C162.3,728.9,169.3,728.9,171.8,734z"/>
	<path class="st18" d="M443.8,734.3c-0.3,0.2,3.2-3.3,23.9,41.3l30,67.1l5.6,0.8c0,0-42.6-110.1-51.2-111.6S443.8,734.3,443.8,734.3
		z"/>
</g>
<g id="skin">
	<path class="st19" d="M429.2,577.4l-12.9,45.4c0,0-10.7,39.3-80.4,80.4c0,0-10.5,6.9-23.2,6.1c0,0-14,1.5-25.3-5.4
		c0,0-40.1-17.4-79.1-73.3c0,0-14.8-29.9-17.1-50l-40.6-116.4l67.4-72.9l114.7-42.2l99.2,71.1l27.8,89.1L429.2,577.4z"/>
</g>
<g id="skin_shadows">
	<path class="st20" d="M429.2,576.8l-11.1,39c0,0,13.9,10.3,27.8-10.7l18.7-26.6l10.5-28.4l-5.6-29.8l-22.9,10.5L429.2,576.8z"/>
	<path class="st20" d="M231.8,659l2.8,30.5l39.4,7.1C274,696.7,237.4,669.4,231.8,659z"/>
	<path class="st20" d="M384,666.9v20.3c0,0-12.9,7.1-34.7,7.3C349.3,694.4,376.9,676.6,384,666.9z"/>
	<path class="st20" d="M299.9,579.4c0,0,6.6,3.4,2.9,28.6c0,0-1,8.3-15.7-8.7C287.1,599.3,282,592.1,299.9,579.4z"/>
	<path class="st20" d="M322.3,666c0,0-11.6,13.6-23.7,1.7c0,0-3.4-2.2,7.7-7.5C306.3,660.2,306.8,656.3,322.3,666z"/>
	<path class="st20" d="M400.3,498.9l-14.8,16c0,0-36.3,10.9-54.8,38.1l7-24C337.6,529,361.5,506.4,400.3,498.9z"/>
	<path class="st20" d="M292.9,560.5c0,0,5.1-14.1-14.6-36.9c0,0-52.6-26.2-71.8-28.4C206.4,495.1,294.7,557.6,292.9,560.5z"/>
	<path class="st21" d="M445.9,509.4c0,0-38.4-106.1-127.1-108.3S186,468.1,174.2,510.6c-11.7,42.6-11.7-67.6-11.7-67.6l38.1-28.8
		l87.1-47.9l154.5,41.9L445.9,509.4z"/>
	<polyline class="st21" points="445.9,509.4 454.4,492.1 442.1,408.2 	"/>
	<path class="st20" d="M153.8,518.8c0,0-10,32.4,0,47.8l4.6,14.5l12.6,18.4l4.4,5.2c0,0,8.4,20.1,27.3,14.8c0,0-11.2-31.3-11.2-38.2
		S165,516.1,165,516.1L153.8,518.8z"/>
</g>
<g id="jewelery">
	<path class="st22" d="M187,597.2c0,0-4.9,5.6-0.7,14.6l-0.5,15l1.2,1.5l0.9-16.3C187.9,612.1,193.3,604.7,187,597.2z"/>
	<polygon class="st10" points="193.1,634.2 181.9,623.8 181.9,628.4 193.1,637.8 	"/>
	<polygon class="st4" points="190.9,722.5 177.6,713.2 179.9,628.4 193.1,638.9 	"/>
	<path class="st23" d="M193.1,590.3c0,0-21.4-2.4-24.3-17.9"/>
	<path class="st24" d="M163.7,532.2c0,0-12.9,5.3-5.8,27.1"/>
	<path class="st25" d="M131.7,606.8"/>
	<path class="st26" d="M463.3,537.5c0,0,2.6,3.4,1.6,8.5"/>
	<path d="M423.4,595.7c0,0,7.1,0.2,16.9-7.3"/>
	<path d="M433,609.3c0,0-4.9-4.3-1.1-12.4c0,0,4.7-0.2,2.8,10.4L433,609.3z"/>
	<line class="st22" x1="433.8" y1="623.3" x2="433" y2="609.3"/>
	<polygon class="st10" points="426.8,631.8 437.9,619 437.9,623.3 426.8,637.1 	"/>
	<polygon class="st4" points="425.5,723.7 439.3,712.3 437.9,623.3 426.8,637.1 	"/>
	<g id="Layer_9">
	</g>
</g>
<g id="Layer_10">
	<ellipse class="st27" cx="187.4" cy="644.7" rx="1.3" ry="6.7"/>
	<ellipse class="st27" cx="433.1" cy="639.9" rx="1.3" ry="6.6"/>
	<line class="st10" x1="180.6" y1="631.8" x2="184.1" y2="638.9"/>
	<line class="st10" x1="180.6" y1="644.7" x2="183.5" y2="644.7"/>
	<line class="st10" x1="179.9" y1="651.9" x2="184.1" y2="648.7"/>
	<line class="st10" x1="192.7" y1="660.5" x2="188.7" y2="653.5"/>
	<line class="st10" x1="192.7" y1="650.3" x2="189.9" y2="649.5"/>
	<line class="st10" x1="192.7" y1="643.2" x2="189.9" y2="644"/>
	<line class="st10" x1="179.9" y1="670.9" x2="185" y2="656"/>
	<line class="st10" x1="191.3" y1="684.7" x2="188.7" y2="662.7"/>
	<line class="st10" x1="186.1" y1="690.6" x2="186.8" y2="658.7"/>
	<path class="st28" d="M179,690.6l-0.8,22.6l12.4,10.1l0.6-28.1C191.3,695.2,187.3,687.8,179,690.6z"/>
	<path class="st10" d="M426.7,639"/>
	<line class="st10" x1="430.4" y1="639.9" x2="426.7" y2="639.9"/>
	<line class="st10" x1="426.7" y1="647.2" x2="429.8" y2="644.7"/>
	<line class="st10" x1="426.7" y1="653.1" x2="430.4" y2="647.7"/>
	<line class="st10" x1="439.1" y1="667.4" x2="434.5" y2="651.4"/>
	<line class="st10" x1="433.1" y1="682.3" x2="432.4" y2="651.4"/>
	<line class="st10" x1="425.4" y1="674.8" x2="430.4" y2="654.5"/>
	<line class="st10" x1="439.1" y1="644.7" x2="435.6" y2="642.4"/>
	<line class="st10" x1="439.1" y1="636.2" x2="436.8" y2="637.6"/>
	<line class="st10" x1="439.1" y1="626.1" x2="435.6" y2="631.5"/>
	<path class="st29" d="M425.4,690.4v33.3l13.7-10.9v-27.3C439.1,685.5,433.2,676.7,425.4,690.4z"/>
</g>
<g id="hair">
	<path class="st30" d="M191.4,581.3c-6.1,20.4-33.7,37-33.7,37s20.1-22,21.3-43.4c0,0-29.8,16.5-52.9,15.3c0,0,40.7-17.5,33.7-66
		c0,0-6.5,25-63.8,13.2c0,0,27.2-7.8,37.4-30.6c0,0-49.5-0.9-69.4-24.7c0,0,55.5,4.6,76.4-40.9c0,0-1-47.3,6.1-58.2l29.1-24.2
		c0,0-19.2-31.8,15-62.6c0,0,22.8-16.3,40.5-19.1c0,0,20.8-4.8,16.7-49.7c0,0,29.1,10,31.8,46.8l7.3-4.9c0,0,88.7,18,98-36.6
		c0,0,12.4,31.7-7,50.2c0,0,61.8,7.1,98.2,36.6c0,0-53.3-2.4-57,1c0,0,35.1,11.7,41,16.7c0,0,27.7,48.9,69.4-11.9
		c0,0-5.1,44.9-37.6,64.9c0,0,21.4,20.1,25.2,46.8c0,0-18-23-34.4-23.5c0,0,12.4,53.6,65.9,44.4c0,0-19.2,29.3-43.6,35.1
		c0,0,6.5,7.8,8.7,19.9c0,0-11.7-10.6-22.3-8c0,0,4.3,36.8,41,34.2c0,0-19.9,19.9-54.6,16.9l3.1,23.8l-12.8-11.6l-1.4,3.7
		c0,0,9.2,19.7,24.5,22.6c0,0-18.2,10-41.7-10.9c0,0,2.2,15.8,14.1,31.7c0,0-21.8-2.4-34.6-38.6c0,0,17.4-74,18-85.3
		c0,0-9.7-25.7-13.3-26l5.4-0.7c0,0-24-32.7-30.1-32.9l7.5,1.4c0,0-20.3-20.1-39.1-22.6l10.6-0.9c0,0-31.7-11.1-51.7-10.6l9.5-3.2
		c0,0-29.8-6.8-55.3,4.8l9.7-7.3c0,0-17.5-0.7-30.8,10.2l2.4-5.8c0,0-19.2,5.3-23.8,13.3c0,0-7.7-5.6-15-4.9l4.4,4.1
		c0,0-25.5,2.4-26.6,8.5l6.8,2.2c0,0-27.9,18-31.3,26.4l9.5-2c0,0-29.9,16.2-18.6,74.1L191.4,581.3z"/>
	<path class="st20" d="M466.8,572.1c-11.7-15.8-0.9-43.9-0.9-43.9s10.9,11.8,2.2,40.2"/>
	<path class="st31" d="M463.3,537.5c0,0,1.9,0.4,1.8,10.2c0,0-2.8-5.8-2.4-7.5C463.3,537.5,463.3,537.5,463.3,537.5z"/>
</g>
<g id="tattoo">
	<path class="st32" d="M363,402.6c0,0-0.5,10.7-11.2,5.9l-8.7,18.6c0,0,25.5-13.8,16.6,13.5c0,0-6.6,23.5-20.9,14.8l-6.6,16.1
		c0,0,17.6-11.5,8.7,11.7l-10.2,21.4c0,0,26-27.3,18.6-2.8c0,0,12.3-11.5,16.3-8.7c0,0-1.3-18.4,16.3-30.9c0,0,28.1-14.8,7.4,16.9
		c0,0,25.5-8.2,14.3,3.1c0,0,44.4-7.4,33.4,18.4c0,0,7.4,8.2,7.4,11.2c0,3.1,20.4-32.7,20.4-32.7l-16.3-26.3l-18.6-0.5
		c0,0-29.1,9.7-25-14.6c0,0-17.4-0.3-5.1-18.1L377,394.9L363,402.6z"/>
	<path class="st32" d="M358.1,409.6"/>
</g>
<g id="hair_shadows">
	<path class="st33" d="M191.2,580.1c0,0-11,30.6-34.2,38c0,0,22.5-24.5,22.2-42.9c0,0-17.9,11-37.5,13.5c0,0,21.7-16.6,27.3-53.1
		l4.9,14.8c0,0-4.1-50-5.4-63.3l-4.9,21.7c0,0-5.6-26.6-0.5-46.2c0,0-14.3,20.4-4.3,59.5l0.7,1.5c0,0-2.2,21.3-46.1,15.8
		c0,0,22.8-21,27.1-33.8l-18.4-4.9l7.5-2.9c0,0-27.4-3.2-34.6-5.8c0,0,36.3-5.6,69.3-76.1c0,0,18-18,60.3-9.9
		c0,0-41.9-18.2-56.9-2.1c0,0-12.6,12.7-20.4,27.7c0,0-3.6-30,12.5-41.9c0,0-2-4.1-3.4-4.1c0,0,4.3-3.4,10.5-5c0,0,0.1-2-3.4-1.9
		c0,0,2-3.6,12.3-3.8c0,0-0.1-2.3-3.6-5.2c0,0,3.2-1.8,8.9-0.9l-0.8-5.7l8.4,3.1l-2.2-10.3c0,0,45.6,47.9,52.3,49.8l2.3,1.4
		c0,0-49.8-55.1-53.2-68.3c0,0-5.8-17.7,16.9-34.7l44.6-29.8c0,0-19.9,24.2-19.9,28.4c0,0,10.7-7.8,14.5-8.9c0,0-22.1,24.3-18,55.1
		c0,0-0.7-31.7,60.3-69.4l-12.6,14.6l24.2-12.3l55.3,3.6c0,0-97.9,12.1-116.3,70.6c0,0,2.6,43.6,8.9,51.6l1.5,2.7
		c0,0-2-45.1,4.6-60.8c0,0,21.8-38.8,69.6-48.2c0,0,45.1-11.6,65.7-7.1c0,0-42.2,4.6-53.6,13.6c0,0,34.7-7,45.8-5.1
		c0,0-30,6.6-39.7,12.9c0,0,52.9-1,58.9,4.8c0,0-11.7-1.5-19.6,1c0,0,39.1,7.8,47.3,18.4c0,0-79.5-27.7-160.2,56.7
		c0,0,90.6-64.3,156.3-51.1c0,0,54.6,25.5,68.9,24c0,0-26.4,3.1-30.5,2.9c0,0,15.8,9.9,17.5,13.4c0,0-9.4-2.7-13.8-2.2
		c0,0,36.3,17.4,40.7,40.7c0,0-16-11.2-21.8-10.2c0,0-2.4-1.7-5.8-5.4c0,0,12.9,62.6,46.5,57.7c0,0-11.4,18.6-20.6,22.8
		c0,0-2.9,1-4.1,6c0,0-8-1.9-11.2,0.7c0,0-7.7,41.4,32.5,50.4c0,0-13.1,12.4-42.4,9.5c0,0,2.7,18.2,3.9,24.5l-13.8-11.9
		c0,0,7.1-28.4-2.4-40.2c0,0,16-67.2,15.7-82.7c0,0,0-25.5-30-60.3c0,0,34.2,52.6,14,84.4c0,0-3.1-34.2-9.2-40
		c0,0,2.9,65.4-5.6,86.1c0,0,8-17.4,9.5-27.4c0,0,0,19.1-1,22.1c0,0,8-18.6,9.7-27.7c0,0-1.9,33.5-8.5,46.6c0,0-18,34.2,16.5,67.1
		c0,0-12.4,2.4-26.9-12.8c0,0,0,15,13.3,31.5c0,0-22.6-3.7-34-38.6c0,0,15.8-67.4,17.4-86c0,0-4.1-13.8-12.6-25.5l4.3,0.2
		c0,0-15.5-26.7-29.1-33.2l8.3,1.9c0,0-26.6-23-39.1-23.3l10.6-0.7c0,0-31.5-11.2-53.1-10.6l9.5-3.1c0,0-20.1-7.1-54,4.3l8-6.3
		c0,0-17.5,0-30.3,10.2l2.7-6.6c0,0-20.9,7.3-24,13.6c0,0-9.2-6.8-14.6-4.8l3.9,4.1c0,0-23.1,1.9-25.9,8.3l6.6,1.7
		c0,0-30.3,21.1-31.3,26.7l9-1.3c0,0-27.9,23.1-19.6,64.1S191.2,580.1,191.2,580.1z"/>
	<path class="st30" d="M437.8,443.7c0,0-13.1-27.8-24.8-37.7c0,0-33.2-10-77.1-6.8c0,0,52.4-15.3,81.2-4.9
		C417.1,394.4,434.1,412.7,437.8,443.7z"/>
</g>
</svg>
