<svg xmlns="http://www.w3.org/2000/svg" viewBox="0 0 607.58 843.77"><defs><style>.cls-1{fill:#e51331;}.cls-2{font-size:73.29px;font-family:Impact;}.cls-3{letter-spacing:-0.04em;}.cls-4{fill:#2c1316;}.cls-5{fill:#249855;}.cls-6{fill:#f7f6f5;}.cls-7{fill:#dce0e3;}.cls-8{fill:#131b25;}.cls-9{fill:#100e14;}.cls-10{fill:#0c1018;}.cls-11{fill:#c6ccd2;}.cls-12,.cls-25,.cls-26,.cls-27{fill:none;}.cls-12,.cls-24{stroke:#000;}.cls-12,.cls-24,.cls-25,.cls-26,.cls-27,.cls-31,.cls-32,.cls-34{stroke-miterlimit:10;}.cls-13{fill:#150807;}.cls-14{fill:#d1d8da;}.cls-15{fill:#c7ccd1;}.cls-16{fill:#0f1010;}.cls-17{fill:#1b6f3f;}.cls-18{fill:#091212;}.cls-19{fill:#b5b6ba;}.cls-20{fill:#adb5b6;}.cls-21{fill:#fee6c1;}.cls-22{fill:#deaf8f;}.cls-23{fill:#e2ac94;}.cls-25{stroke:#66452f;}.cls-26{stroke:#a75;}.cls-27{stroke:#875838;}.cls-28{fill:#c94448;}.cls-29{fill:#9ba3a5;}.cls-30{fill:#99a3a9;}.cls-31{fill:#7a2d39;}.cls-31,.cls-34{stroke:#231f20;}.cls-32{fill:#936241;stroke:#9e6c46;}.cls-33{fill:#7b3030;}.cls-34{fill:#2b0c0f;}</style></defs><g id="Layer_2" data-name="Layer 2"><g id="BG"><rect class="cls-1" width="595.28" height="841.89"/></g><g id="Layer_13" data-name="Layer 13"><text class="cls-2" transform="matrix(2.36, 0, -0.19, 0.98, 14.88, 107.56)"><tspan class="cls-3">T</tspan><tspan x="30.85" y="0">ANJIRO</tspan></text><text class="cls-2" transform="matrix(2.36, 0, -0.19, 0.98, 14.88, 212.15)"><tspan class="cls-3">T</tspan><tspan x="30.85" y="0">ANJIRO</tspan></text><text class="cls-2" transform="matrix(2.36, 0, -0.19, 0.98, 14.88, 311.02)"><tspan class="cls-3">T</tspan><tspan x="30.85" y="0">ANJIRO</tspan></text><text class="cls-2" transform="matrix(2.36, 0, -0.19, 0.98, 14.88, 404.79)"><tspan class="cls-3">T</tspan><tspan x="30.85" y="0">ANJIRO</tspan></text><text class="cls-2" transform="matrix(2.36, 0, -0.19, 0.98, 14.88, 503.13)"><tspan class="cls-3">T</tspan><tspan x="30.85" y="0">ANJIRO</tspan></text><text class="cls-2" transform="matrix(2.36, 0, -0.19, 0.98, 14.88, 599.32)"><tspan class="cls-3">T</tspan><tspan x="30.85" y="0">ANJIRO</tspan></text><text class="cls-2" transform="matrix(2.36, 0, -0.19, 0.98, 14.88, 697.83)"><tspan class="cls-3">T</tspan><tspan x="30.85" y="0">ANJIRO</tspan></text></g><g id="clothes"><path class="cls-4" d="M222.06,708l-1,32.94s35.24,21.44,66.13,20.17v-38.3S260.87,722.27,222.06,708Z"/><path class="cls-4" d="M333.38,761.13l1.28-40.91s50.55-6.38,62-9.7V743.2S373.72,758.63,333.38,761.13Z"/><path class="cls-4" d="M333.38,761.13a164,164,0,0,1-46.21,0L221,729.42c-5.87,1.78-11.74,13.27-11.74,13.27-10.73,8.94-26.81,100.83-26.81,100.83l247.4-1c-.76-25.3-22.46-95-22.46-95-2.81-15.83-10.73-19.66-10.73-19.66"/><path class="cls-5" d="M209.3,742.94c5.07-3.12-45.71-.51-45.71-.51S119.17,817.7,118.4,843.77h64.09S190,801.47,198,771.58C201.93,756.75,206,745,209.3,742.94Z"/><circle class="cls-6" cx="309.85" cy="801.85" r="20.74"/><polygon class="cls-5" points="407.43 747.54 455.17 747.54 498.06 843.52 429.89 842.52 407.43 747.54"/><path class="cls-7" d="M521.81,751.37s24.76,58.43,35,92.15H498.06l-42.89-96s-6.13-13-11-11.71c0,0-2-4.33,6.57-4.77a57.77,57.77,0,0,1,12.58,1.16S509.3,741.16,521.81,751.37Z"/><path class="cls-8" d="M595.28,805.76s-17.56-32.17-36.19-33.45c0,0-29.88-13.57-33.45-11.76,0,0,24,59.46,31.15,83h38.49Z"/><path class="cls-8" d="M44.11,777.93,0,841v2.53H60.45s4.85-39.81,30.64-84C91.09,759.54,59.94,766.69,44.11,777.93Z"/><path class="cls-7" d="M118.4,843.52H60.45S69.64,789.93,99,746c0,0,55.25-21.45,65-16.59,0,0,.33-2.3,8.25,4.08.84.45-15.34,15.24-37.11,62C135.17,795.49,117.13,835.08,118.4,843.52Z"/><path class="cls-9" d="M222,711s-17.1,4.25-21.86,14.81c0,0-24.79,4.76-27.8,6.8l-6.67,9.77s41.1-2.47,43.66.61c0,0,6.89-12.25,12.09-13.36Z"/><path class="cls-10" d="M396.7,710.52s19.53,11.56,24,16.34c.75-.07,30.53,4.2,34.47,20.68H407.43c-.11.08-3.52-15.73-10.73-19.66Z"/><path class="cls-11" d="M222.06,708V692.39s-1-5,14.56-2.55c181.73,28.69,40.58,6.46,38,6.9,0,0,38,29.1,74.3-2.3-.58-.42,14.5-16.53,35.06-7.75,0,0,13.19-1.19,12.68,4.43l.07,20.44-62.2,13.52-1.1,37.65-46.21-.05-.09-39.9C287,723.07,270.94,724.62,222.06,708Z"/><path class="cls-12" d="M222.06,698.52s36.31,12.86,87.79,13.54a295.52,295.52,0,0,0,86.85-11.5"/><line class="cls-12" x1="309.85" y1="712.06" x2="309.85" y2="762.73"/><line class="cls-12" x1="320.62" y1="725.08" x2="320.62" y2="762.73"/><line class="cls-12" x1="299.68" y1="726.94" x2="299.68" y2="762.39"/></g><g id="cloth_shadows" data-name="cloth shadows"><path class="cls-13" d="M388.79,713.08,360.7,756l34.21-12.77V726.61s9.71,2.55,12,19.15c0,0-68.62,76.45-83.48,80.17-2.05.51-34.73,27.06-59.75-4.09S222.83,768,222.83,768s19,63.53,30,75.55H236.53s-21.79-23.47-27.4-39.81-17.36-8.34-17.36-8.34,14.46-52.93,17.7-53.44c0,0,4.93-10.39,10.89-12.43l.68,10.55,13.28,6.81-12.43-31.15v-8s54.13,16.85,65.37,14.81l.51,39.15s34.21,3.07,45.78-.17L334.91,720Z"/><circle class="cls-14" cx="309.13" cy="802.35" r="20.51"/><circle class="cls-15" cx="308.02" cy="803.46" r="19.4"/><path class="cls-13" d="M406.06,749.08s-28.76,71.78-53.44,94.44h35.06l36.76-24.84S409.54,747.61,406.06,749.08Z"/><path class="cls-16" d="M396.53,710.27l-.68,14.81s11.75,13.44,11.06,20.68S422.57,728,422.57,728Z"/><polyline class="cls-17" points="183.46 742.37 197.75 772.83 208.72 741.75 184.15 741.93"/><path class="cls-18" d="M180.87,730.35s1.12,10,3,11.4,24.89,0,24.89,0,7.05-12.59,11.64-12.25,1.53-17.87,1.53-17.87-8.51-2.21-21.27,13.11C200.62,724.74,180.73,729,180.87,730.35Z"/><path class="cls-19" d="M171.77,734s-27.83,20.38-52.34,109.51h-8.34s30.55-93.68,51.23-114.61C162.32,728.91,169.34,728.91,171.77,734Z"/><path class="cls-20" d="M443.77,734.32c-.31.25,3.24-3.29,23.91,41.3l30,67.07,5.62.83S460.7,733.42,452,731.88,443.77,734.32,443.77,734.32Z"/></g><g id="skin"><path class="cls-21" d="M429.21,577.42l-12.85,45.36s-10.72,39.32-80.42,80.42c0,0-10.47,6.9-23.24,6.13,0,0-14,1.53-25.27-5.36,0,0-40.09-17.36-79.15-73.28,0,0-14.81-29.87-17.11-50l-40.6-116.43L218,391.34l114.67-42.18,99.17,71.08,27.83,89.14Z"/></g><g id="skin_shadows" data-name="skin shadows"><path class="cls-22" d="M429.21,576.82l-11.06,39s13.91,10.33,27.76-10.67l18.71-26.61,10.47-28.42-5.62-29.79-22.85,10.47Z"/><path class="cls-22" d="M231.77,659l2.8,30.52,39.41,7.1S237.38,669.42,231.77,659Z"/><path class="cls-22" d="M384,666.86v20.26s-12.93,7.15-34.72,7.32C349.3,694.44,376.87,676.56,384,666.86Z"/><path class="cls-22" d="M299.85,579.37s6.64,3.41,2.89,28.6c0,0-1,8.34-15.65-8.68C287.09,599.29,282,592.14,299.85,579.37Z"/><path class="cls-22" d="M322.32,666s-11.58,13.62-23.66,1.7c0,0-3.4-2.21,7.66-7.49C306.32,660.22,306.83,656.31,322.32,666Z"/><path class="cls-22" d="M400.28,498.86l-14.81,16s-36.26,10.9-54.81,38.13l7-24S361.47,506.35,400.28,498.86Z"/><path class="cls-22" d="M292.87,560.48s5.11-14.13-14.64-36.94c0,0-52.59-26.21-71.83-28.42C206.4,495.12,294.74,557.59,292.87,560.48Z"/><path class="cls-23" d="M445.89,509.42S407.44,403.31,318.74,401.16,186,468.05,174.23,510.61,162.49,443,162.49,443l38.13-28.76,87.06-47.92,154.47,41.87Z"/><polyline class="cls-23" points="445.89 509.42 454.43 492.06 442.15 408.22"/><path class="cls-22" d="M153.81,518.78s-10,32.4,0,47.83l4.59,14.47,12.6,18.4,4.36,5.21s8.41,20.13,27.3,14.85c0,0-11.23-31.32-11.23-38.21S165,516.05,165,516.05Z"/></g><g id="jewelery"><path class="cls-24" d="M187,597.25s-4.94,5.61-.68,14.63l-.53,15,1.21,1.53.85-16.34A12,12,0,0,0,187,597.25Z"/><polygon class="cls-12" points="193.13 634.18 181.89 623.8 181.89 628.39 193.13 637.76 193.13 634.18"/><polygon class="cls-6" points="190.91 722.52 177.64 713.16 179.85 628.39 193.13 638.95 190.91 722.52"/><path class="cls-25" d="M193.13,590.27s-21.45-2.39-24.34-17.88"/><path class="cls-26" d="M163.68,532.22s-12.94,5.28-5.79,27.07"/><path class="cls-27" d="M463.25,537.47a11.59,11.59,0,0,1,1.62,8.54"/><path d="M423.43,595.71s7.14.17,16.85-7.32"/><path d="M433,609.33s-4.94-4.25-1.11-12.42c0,0,4.68-.17,2.81,10.38Z"/><line class="cls-24" x1="433.81" y1="623.29" x2="432.96" y2="609.33"/><polygon class="cls-12" points="426.83 631.8 437.89 619.03 437.89 623.29 426.83 637.08 426.83 631.8"/><polygon class="cls-6" points="425.47 723.71 439.25 712.31 437.89 623.29 426.83 637.08 425.47 723.71"/></g><g id="Layer_10" data-name="Layer 10"><ellipse class="cls-28" cx="187.4" cy="644.71" rx="1.34" ry="6.7"/><ellipse class="cls-28" cx="433.15" cy="639.93" rx="1.34" ry="6.64"/><line class="cls-12" x1="180.57" y1="631.76" x2="184.15" y2="638.91"/><line class="cls-12" x1="180.57" y1="644.71" x2="183.51" y2="644.71"/><line class="cls-12" x1="179.94" y1="651.93" x2="184.15" y2="648.74"/><line class="cls-12" x1="192.7" y1="660.48" x2="188.74" y2="653.46"/><line class="cls-12" x1="192.7" y1="650.33" x2="189.89" y2="649.5"/><line class="cls-12" x1="192.7" y1="643.25" x2="189.89" y2="644.01"/><line class="cls-12" x1="179.94" y1="670.95" x2="185.04" y2="656.01"/><line class="cls-12" x1="191.3" y1="684.74" x2="188.74" y2="662.65"/><line class="cls-12" x1="186.06" y1="690.61" x2="186.83" y2="658.69"/><path class="cls-29" d="M179,690.61l-.76,22.59,12.44,10.09.58-28.09S187.34,687.8,179,690.61Z"/><line class="cls-12" x1="430.4" y1="639.93" x2="426.7" y2="639.93"/><line class="cls-12" x1="426.7" y1="647.2" x2="429.77" y2="644.65"/><line class="cls-12" x1="426.7" y1="653.08" x2="430.4" y2="647.71"/><line class="cls-12" x1="439.09" y1="667.37" x2="434.49" y2="651.42"/><line class="cls-12" x1="433.15" y1="682.31" x2="432.45" y2="651.42"/><line class="cls-12" x1="425.43" y1="674.78" x2="430.4" y2="654.48"/><line class="cls-12" x1="439.09" y1="644.65" x2="435.64" y2="642.35"/><line class="cls-12" x1="439.09" y1="636.22" x2="436.79" y2="637.63"/><line class="cls-12" x1="439.09" y1="626.14" x2="435.64" y2="631.5"/><path class="cls-30" d="M425.43,690.35v33.32l13.66-10.85V685.5S433.21,676.69,425.43,690.35Z"/></g><g id="hair"><path class="cls-31" d="M191.43,581.33c-6.13,20.43-33.71,37-33.71,37s20.09-22,21.28-43.4c0,0-29.79,16.51-52.94,15.32,0,0,40.68-17.53,33.71-66,0,0-6.47,25-63.83,13.25,0,0,27.23-7.8,37.44-30.61,0,0-49.53-.85-69.44-24.68,0,0,55.49,4.6,76.42-40.85,0,0-1-47.32,6.13-58.21L175.6,359s-19.24-31.83,15-62.64c0,0,22.81-16.34,40.52-19.06,0,0,20.76-4.77,16.68-49.71,0,0,29.1,10.05,31.83,46.81l7.31-4.93s88.69,18,98-36.6c0,0,12.42,31.66-7,50.21,0,0,61.79,7.15,98.21,36.6,0,0-53.28-2.38-57,1,0,0,35.06,11.74,41,16.68,0,0,27.75,48.85,69.45-11.91,0,0-5.11,44.93-37.62,64.85,0,0,21.45,20.08,25.19,46.81,0,0-18-23-34.38-23.49,0,0,12.43,53.61,65.87,44.42,0,0-19.23,29.28-43.57,35.07A47.3,47.3,0,0,1,513.81,513s-11.75-10.55-22.3-8c0,0,4.26,36.77,41,34.21,0,0-19.91,19.92-54.64,16.85L481,579.88l-12.77-11.57-1.36,3.74s9.19,19.75,24.51,22.64c0,0-18.21,10-41.7-10.89a75.78,75.78,0,0,0,14.13,31.66s-21.79-2.38-34.56-38.64c0,0,17.36-74,18.05-85.28,0,0-9.71-25.7-13.28-26l5.45-.68s-24-32.68-30.13-32.85l7.49,1.36s-20.26-20.08-39.15-22.64l10.55-.85s-31.66-11.06-51.74-10.55l9.53-3.24s-29.79-6.8-55.32,4.77l9.7-7.32s-17.53-.68-30.81,10.21l2.39-5.78s-19.24,5.27-23.83,13.27c0,0-7.66-5.61-15-4.93l4.42,4.08S212,412.74,211,418.86l6.81,2.22s-27.92,18-31.32,26.38l9.53-2s-29.87,16.17-18.64,74.12Z"/><path class="cls-22" d="M466.83,572.05c-11.71-15.81-.85-43.91-.85-43.91s10.89,11.83,2.21,40.17"/><path class="cls-32" d="M463.25,537.47s1.95.37,1.83,10.24c0,0-2.76-5.8-2.41-7.47Z"/></g><g id="tattoo"><path class="cls-33" d="M363,402.61s-.51,10.72-11.23,5.87l-8.68,18.64s25.53-13.79,16.59,13.53c0,0-6.64,23.49-20.94,14.81l-6.63,16.08s17.61-11.49,8.68,11.75l-10.22,21.45s26.05-27.32,18.64-2.81c0,0,12.26-11.49,16.34-8.68,0,0-1.27-18.39,16.34-30.9,0,0,28.09-14.81,7.41,16.85,0,0,25.53-8.17,14.3,3.07,0,0,44.42-7.41,33.44,18.38,0,0,7.41,8.17,7.41,11.23s20.42-32.68,20.42-32.68l-16.34-26.29-18.64-.52s-29.1,9.71-25-14.55c0,0-17.36-.25-5.1-18.13L377,395Z"/></g><g id="hair_shadows" data-name="hair shadows"><path class="cls-34" d="M191.17,580.05s-11,30.64-34.21,38.05c0,0,22.47-24.51,22.21-42.9,0,0-17.87,11-37.53,13.54,0,0,21.7-16.6,27.32-53.11l4.85,14.81s-4.09-50.05-5.36-63.32l-4.85,21.7s-5.62-26.55-.51-46.21c0,0-14.3,20.42-4.35,59.49l.69,1.53S157.21,545,113.3,539.46c0,0,22.81-21,27.06-33.79L122,500.74l7.49-2.9s-27.41-3.23-34.56-5.79c0,0,36.26-5.61,69.28-76.08,0,0,18-18,60.26-9.87,0,0-41.88-18.21-56.85-2.13,0,0-12.6,12.68-20.43,27.66,0,0-3.57-30,12.51-41.87,0,0-2-4.13-3.36-4.13a30.38,30.38,0,0,1,10.47-5s.12-2-3.45-1.91c0,0,2-3.58,12.26-3.83,0,0-.13-2.3-3.58-5.24,0,0,3.19-1.79,8.94-.89l-.77-5.75,8.43,3.07-2.17-10.34s45.57,47.87,52.34,49.78l2.3,1.41s-49.83-55.15-53.24-68.26c0,0-5.79-17.7,16.85-34.72l44.6-29.79s-19.92,24.17-19.92,28.43c0,0,10.73-7.83,14.47-8.85,0,0-22.13,24.34-18,55.15,0,0-.68-31.66,60.25-69.45L273.47,294.1l24.17-12.26L353,285.42S255.09,297.5,236.7,356.05c0,0,2.56,43.58,8.85,51.58l1.54,2.72s-2.05-45.1,4.59-60.76c0,0,21.79-38.81,69.62-48.17,0,0,45.1-11.58,65.7-7.15,0,0-42.21,4.59-53.62,13.61,0,0,34.73-7,45.79-5.1,0,0-30,6.64-39.66,12.93,0,0,52.94-1,58.89,4.77,0,0-11.74-1.53-19.57,1,0,0,39.15,7.83,47.32,18.38,0,0-79.49-27.74-160.17,56.68,0,0,90.55-64.34,156.25-51.06,0,0,54.64,25.53,68.94,24,0,0-26.38,3.06-30.47,2.89,0,0,15.83,9.88,17.53,13.45,0,0-9.36-2.72-13.78-2.21,0,0,36.25,17.36,40.68,40.68,0,0-16-11.23-21.79-10.21a42.33,42.33,0,0,1-5.79-5.45s12.94,62.64,46.47,57.7c0,0-11.4,18.56-20.59,22.81,0,0-2.9,1-4.09,6,0,0-8-1.87-11.23.68,0,0-7.66,41.36,32.51,50.38,0,0-13.11,12.43-42.39,9.53,0,0,2.73,18.22,3.92,24.51l-13.79-11.91s7.15-28.43-2.38-40.17c0,0,16-67.23,15.66-82.72,0,0,0-25.54-30-60.26,0,0,34.21,52.6,14,84.43,0,0-3.07-34.22-9.19-40,0,0,2.89,65.36-5.62,86.12,0,0,8-17.36,9.53-27.4,0,0,0,19.06-1,22.13,0,0,8-18.56,9.7-27.75,0,0-1.87,33.53-8.51,46.64,0,0-18,34.21,16.51,67.06,0,0-12.42,2.39-26.89-12.76,0,0,0,15,13.28,31.49,0,0-22.64-3.75-34.05-38.64,0,0,15.83-67.4,17.36-86A95.76,95.76,0,0,0,434.15,465l4.25.17S422.91,438.44,409.3,432l8.34,1.87s-26.55-23-39.15-23.32l10.55-.68s-31.49-11.23-53.1-10.55l9.53-3.07s-20.09-7.14-54,4.26l8-6.3s-17.53,0-30.3,10.21l2.73-6.63s-20.94,7.32-24,13.61c0,0-9.2-6.81-14.64-4.76l3.91,4.08s-23.15,1.87-25.87,8.34l6.64,1.71s-30.3,21.1-31.32,26.72l9-1.32s-27.91,23.11-19.57,64.13S191.17,580.05,191.17,580.05Z"/><path class="cls-31" d="M437.81,443.71S424.66,415.88,413,406.05c0,0-33.19-10-77.1-6.76,0,0,52.42-15.32,81.19-4.94C417.13,394.35,434.15,412.74,437.81,443.71Z"/></g></g></svg>