<svg xmlns="http://www.w3.org/2000/svg" xmlns:xlink="http://www.w3.org/1999/xlink" viewBox="0 0 269 269"><defs><style>.cls-1{fill:url(#linear-gradient);}.cls-2{fill:url(#linear-gradient-2);}</style><linearGradient id="linear-gradient" x1="1034.42" y1="345.25" x2="994.28" y2="389.01" gradientUnits="userSpaceOnUse"><stop offset="0" stop-color="#3f3f3f"/><stop offset="0.3" stop-color="#262626"/><stop offset="0.69" stop-color="#0a0a0a"/><stop offset="0.92"/></linearGradient><linearGradient id="linear-gradient-2" x1="1107.95" y1="266.36" x2="977.74" y2="408.32" xlink:href="#linear-gradient"/></defs><g id="Layer_3" data-name="Layer 3"><path class="cls-1" d="M1032.91,348H974l-17,65h53.06s28.94,2,40.94-27S1045.83,350,1032.91,348Z" transform="translate(-864.71 -250.41)"/><path class="cls-2" d="M1087.24,250.41H911.18a46.48,46.48,0,0,0-46.47,46.47V473a46.47,46.47,0,0,0,46.47,46.46h176.06A46.46,46.46,0,0,0,1133.71,473V296.88A46.47,46.47,0,0,0,1087.24,250.41ZM1066,405c-21,34-71,29-71,29l-69-1,12-42-35-1,5.83-20H943l12-43,91.7,1a2.33,2.33,0,0,1,.59.08C1086.05,338.17,1087,371.09,1066,405Z" transform="translate(-864.71 -250.41)"/></g></svg>