<svg xmlns="http://www.w3.org/2000/svg" viewBox="0 0 360.25 360.25"><g id="Layer_2" data-name="Layer 2"><g id="star"><g id="star-2" data-name="star"><path d="M182.86,269.06a23.83,23.83,0,0,0,6.65,6.66,23.37,23.37,0,0,0-6.66,6.63,23.48,23.48,0,0,0-6.62-6.63,23.76,23.76,0,0,0,6.63-6.66m.12-30a2.53,2.53,0,0,0-.39,1.24c-.77,5.47-1.39,11-2.34,16.42-1.58,9-6.82,14.61-15.9,16.29-4.81.89-9.66,1.5-14.49,2.21-1.23.18-2.46.27-3.7.41a2.75,2.75,0,0,0,1.29.38c5.85.86,11.74,1.51,17.53,2.64,8,1.57,13.1,6.46,14.87,14.52.8,3.63,1.39,7.32,2,11,.41,2.73.63,5.49.93,8.24l.28,0c0-.38,0-.76.1-1.13.85-5.85,1.51-11.74,2.62-17.54,1.6-8.32,6.76-13.4,15.06-15.1,4.2-.85,8.45-1.44,12.69-2.09,2-.3,4-.44,6-.65a2.36,2.36,0,0,0-1.2-.39c-5.47-.77-11-1.4-16.42-2.34-9.32-1.6-14.84-7.19-16.47-16.5-.81-4.6-1.4-9.24-2.06-13.86-.18-1.23-.27-2.48-.4-3.72Z"/><path d="M183.23,275.27c0,.25,0,.5,0,.74h-.69c0-.25,0-.5,0-.74h.69m16.63-16.72a1.56,1.56,0,0,0-.73.39c-2.89,2.21-5.72,4.49-8.66,6.6a13.13,13.13,0,0,1-7.7,2.74,13.34,13.34,0,0,1-7.62-2.63c-2.52-1.74-5-3.6-7.44-5.42-.66-.49-1.28-1-1.92-1.53a1.51,1.51,0,0,0,.4.75c2.21,2.88,4.49,5.71,6.6,8.67,3.48,4.87,3.7,9.92.3,14.95-1.8,2.65-3.75,5.21-5.64,7.8-.48.65-1,1.28-1.52,1.91a1.84,1.84,0,0,0,.77-.42c3.1-2.34,6.12-4.8,9.32-7a12.28,12.28,0,0,1,7-2.36,12.47,12.47,0,0,1,6.65,2.09c2.07,1.3,4.07,2.72,6.05,4.16,1.47,1.06,2.86,2.23,4.29,3.36l.12-.15c-.17-.19-.34-.37-.49-.57-2.35-3.09-4.8-6.11-7-9.31-3.16-4.58-3.16-9.34-.13-14,1.54-2.35,3.22-4.62,4.87-6.89.78-1.08,1.65-2.09,2.48-3.14Z"/></g></g><g id="_07" data-name="07"><g id="Layer_5" data-name="Layer 5"><path d="M69.05,239.67l-.15,0a18.6,18.6,0,0,0-9.5,2.56,22.1,22.1,0,0,0-7.2,6.62A32.58,32.58,0,0,0,47.88,258a33.08,33.08,0,0,0-1.44,10.12,36,36,0,0,0,3,13.83,25.17,25.17,0,0,0,8,10.08,19.45,19.45,0,0,0,11.63,3.88h.22a18.33,18.33,0,0,0,11.23-3.81,25.3,25.3,0,0,0,8-10.52,34.3,34.3,0,0,0,2.7-14.4,36.61,36.61,0,0,0-1.62-9.9,32.7,32.7,0,0,0-4.14-8.74,20.31,20.31,0,0,0-6.87-6.38,18.66,18.66,0,0,0-9.4-2.41.35.35,0,0,0-.14,0Zm.29,7.74v-.08a12,12,0,0,1,6.4,2.06,13.94,13.94,0,0,1,4.47,4.93,27.82,27.82,0,0,1,2.52,6.37,29.52,29.52,0,0,1,.93,6.66,25.18,25.18,0,0,1-2.08,9.94A21.87,21.87,0,0,1,76,285.24a10.57,10.57,0,0,1-7,3h-.17a11.12,11.12,0,0,1-7.41-3.13,19.87,19.87,0,0,1-5.19-7.7,26.44,26.44,0,0,1-1.8-9.62,28.44,28.44,0,0,1,1.66-9.72,18.35,18.35,0,0,1,5.15-7.7,11.24,11.24,0,0,1,7.69-3Z"/><path d="M317.18,240.49h-8.85l-31.25,54.29H286l31.17-54.29Zm-18.5,0H281.4v7.78l13.18-.07,4.1-7.71Z"/></g></g><g id="arka"><g id="arka-2" data-name="arka"><polygon points="69.84 64.38 43.05 121.98 52.05 121.98 69.77 82.67 86.9 122.05 95.76 121.98 69.84 64.38 69.84 64.38"/><path d="M121.28,67.68h-3.67v7.78h9c4.33,0,7.3.33,8.93,1a8.45,8.45,0,0,1,3,2.41,6,6,0,0,1,1.37,3.2,12.25,12.25,0,0,1-.15,3.78,8.41,8.41,0,0,1-1,2.78,6.21,6.21,0,0,1-1.91,1.87,11.18,11.18,0,0,1-2.37,1.19,16,16,0,0,1-2.85.64,24.07,24.07,0,0,1-2.88.29c-.79,0-1.79,0-3,0-2.59,0-3.93,0-4-.07l5.4,7,15.55,22.32,10.08.07-16.63-23a13.86,13.86,0,0,0,5.83-2.81,18.1,18.1,0,0,0,4.58-5.5,16.51,16.51,0,0,0,1.33-8.18q-.28-6.76-4.83-10.51t-11.88-4.1c-3-.11-6.27-.16-9.86-.16Z"/><path d="M222.33,67.69l-17.5,17.86V100l18.22,22h11.37L209.3,91.67l23.54-23.9-10.51-.08Zm-25.27,0h-8.21l.07,33.2,8.28-8.43-.14-24.77Zm.07,38.09-8.21,8.43-.07,7.77h8.28v-16.2Z"/><polygon points="291.26 64.38 264.48 121.98 273.48 121.98 291.19 82.67 308.33 122.05 317.19 121.98 291.26 64.38 291.26 64.38"/></g></g><g id="rios"><g id="rios-2" data-name="rios"><path d="M52.92,154.08H49.25v7.78h9c4.33,0,7.3.33,8.93,1a8.54,8.54,0,0,1,3,2.41,6,6,0,0,1,1.37,3.2,12.25,12.25,0,0,1-.15,3.78,8.41,8.41,0,0,1-1,2.78,6.21,6.21,0,0,1-1.91,1.87,11.42,11.42,0,0,1-2.37,1.19,16,16,0,0,1-2.85.64,24.07,24.07,0,0,1-2.88.29c-.79,0-1.79,0-3,0-2.59,0-3.93,0-4-.07l5.4,7L74.3,208.31l10.08.07-16.63-23a13.86,13.86,0,0,0,5.83-2.81,18,18,0,0,0,4.58-5.5,16.54,16.54,0,0,0,1.33-8.18q-.28-6.76-4.83-10.51t-11.88-4.1q-4.48-.17-9.86-.16Z"/><polygon points="139.01 154.09 130.81 154.17 130.74 208.38 138.94 208.38 139.01 154.09 139.01 154.09"/><path d="M210.67,153.23h-.39a27,27,0,0,0-14.44,4.14,27.74,27.74,0,0,0-13,25.24,35.53,35.53,0,0,0,.93,6.84,21.29,21.29,0,0,0,2,4.68l9.43-.08a23.22,23.22,0,0,1-3.13-5.83,19.94,19.94,0,0,1-1-6.55,22.28,22.28,0,0,1,1.58-8.82,17.81,17.81,0,0,1,4.5-6.62,21.11,21.11,0,0,1,6.34-4,20.06,20.06,0,0,1,7.16-1.48h.2a19.57,19.57,0,0,1,13.91,5.58A21.05,21.05,0,0,1,226.91,194l9.51-.07q3.45-5.32,3-13.18a30.22,30.22,0,0,0-8.53-19.51,26.63,26.63,0,0,0-9.07-5.9,29.55,29.55,0,0,0-11.17-2.09Zm-27.1,47.3-.07,7.92,18.86-.07v-7.7H188.61l-5-.15Zm54.72.08-5,.14H219.71v7.7l18.72.08-.14-7.92Z"/><path d="M300.7,152.94a17.38,17.38,0,0,0-10.34,3.64,12.5,12.5,0,0,0-5.36,9q-.93,8.51,5.69,12.67l5.61-5.68a7.91,7.91,0,0,1-2.12-2.06,4.54,4.54,0,0,1-.9-3,5.87,5.87,0,0,1,2.59-5,10.68,10.68,0,0,1,5.69-1.66,8.16,8.16,0,0,1,2.74.43,5.53,5.53,0,0,1,1.54.72,2.32,2.32,0,0,1,.47.51l5.33-5.4a11.93,11.93,0,0,0-4.75-3,17.86,17.86,0,0,0-6.19-1.12Zm4.75,23.62-6.12,6c1.29.53,2.34,1,3.13,1.34a18.36,18.36,0,0,1,2.74,1.62,9.61,9.61,0,0,1,2.34,2.19,8.68,8.68,0,0,1,1.22,2.95,10.82,10.82,0,0,1,.14,4,7.36,7.36,0,0,1-3.45,5.33,9.57,9.57,0,0,1-5.39,1.71,8.72,8.72,0,0,1-1-.06,10.17,10.17,0,0,1-3.1-.86,7.41,7.41,0,0,1-2.19-1.51,9.18,9.18,0,0,1-1.44-2,10.65,10.65,0,0,1-.87-2.05,15.46,15.46,0,0,1-.39-1.87c-.1-.65-.16-1.08-.18-1.3a3.81,3.81,0,0,1,0-.54l-7,7.56a5.47,5.47,0,0,0,.36,1,12.73,12.73,0,0,0,1.44,2.41,17.45,17.45,0,0,0,2.66,2.91,14.87,14.87,0,0,0,4.36,2.52,19.59,19.59,0,0,0,6.08,1.34l1,0a20.55,20.55,0,0,0,5.89-.82,15.29,15.29,0,0,0,5.18-2.55,17.2,17.2,0,0,0,3.53-3.75,15.1,15.1,0,0,0,2.12-4.28,15.89,15.89,0,0,0,.72-4.18,20,20,0,0,0-.64-5.79,15.86,15.86,0,0,0-1.8-4.32,13.67,13.67,0,0,0-2.88-3.17,21,21,0,0,0-3.14-2.2c-.88-.48-2-1-3.27-1.65Z"/></g></g><g id="rect"><g id="rectangle"><path d="M350.25,10V350.25H10V10H350.25m10-10H0V360.25H360.25V0Z"/></g></g></g></svg>